<svg width="642" height="408" viewBox="0 0 642 408" fill="none" xmlns="http://www.w3.org/2000/svg">
<path opacity="0.1" d="M782.762 435.225L696.425 115.435C688.233 85.0944 671.037 57.9274 647.091 37.4926C623.145 17.0577 593.565 4.30797 562.225 0.913166C530.886 -2.48163 499.248 3.63696 471.457 18.4674C443.665 33.2979 421.016 56.1487 406.476 84.0266L255.007 374.353H87.8693L124.431 238.846C135.921 196.28 170.829 177.765 199.66 174.642C228.491 171.518 266.567 182.121 286.972 221.233L291.011 229.007H292.108L328.06 160.066C309.52 138.516 285.433 122.415 258.394 113.497C231.354 104.579 202.386 103.18 174.609 109.453C146.831 115.726 121.296 129.431 100.754 149.094C80.211 168.757 65.439 193.633 58.028 221.043L0.208877 435.225C-0.0338242 436.127 -0.0654428 437.072 0.116215 437.987C0.297873 438.902 0.687988 439.763 1.25663 440.505C1.82528 441.246 2.55728 441.847 3.39593 442.261C4.23457 442.676 5.15763 442.893 6.09374 442.896H291.255C292.928 442.894 294.569 442.435 296 441.57C297.43 440.704 298.595 439.464 299.368 437.985L467.481 115.643C487.886 76.5303 525.979 65.9278 554.793 69.0513C583.607 72.1748 618.531 90.6726 630.022 133.256L695.119 374.457H444.413L408.443 305.48H407.207L369.009 378.726L399.964 438.089C400.736 439.569 401.9 440.81 403.331 441.676C404.762 442.542 406.403 443 408.077 442.999H776.808C777.761 443.012 778.704 442.802 779.562 442.386C780.42 441.971 781.168 441.361 781.746 440.605C782.325 439.85 782.718 438.97 782.895 438.036C783.071 437.101 783.025 436.139 782.762 435.225Z" fill="white" fill-opacity="0.4"/>
</svg>
