<svg width="24" height="24" viewBox="0 0 24 24" fill="none" xmlns="http://www.w3.org/2000/svg">
<g clip-path="url(#clip0_272_1366)">
<path d="M12 24.0016C18.6274 24.0016 24 18.629 24 12.0016C24 5.37426 18.6274 0.00170898 12 0.00170898C5.37258 0.00170898 0 5.37426 0 12.0016C0 18.629 5.37258 24.0016 12 24.0016Z" fill="#1977F3"/>
<path d="M16.6712 15.4712L17.2028 12.0017H13.875V9.75051C13.875 8.80212 14.3391 7.87566 15.8308 7.87566H17.3445V4.92249C17.3445 4.92249 15.9709 4.68793 14.658 4.68793C11.9175 4.68793 10.1253 6.34845 10.1253 9.35731V12.0017H7.07764V15.4712H10.1253V23.8565C10.7362 23.9527 11.3623 24.0017 12.0002 24.0017C12.638 24.0017 13.2641 23.951 13.875 23.8565V15.4712H16.6712Z" fill="white"/>
</g>
<defs>
<clipPath id="clip0_272_1366">
<rect width="24" height="24" fill="white"/>
</clipPath>
</defs>
</svg>
