<svg width="24" height="24" viewBox="0 0 24 24" fill="#AB7C94" xmlns="http://www.w3.org/2000/svg">
<path d="M20.3857 5.92862C20.3799 5.84651 20.353 5.76729 20.3075 5.6987C20.2983 5.67659 20.2877 5.65507 20.2759 5.63426C20.2679 5.62382 20.256 5.61926 20.2473 5.60954C20.2187 5.57853 20.1867 5.55077 20.1519 5.52674C20.06 5.46208 19.9534 5.42137 19.8417 5.4083C19.8272 5.40734 19.8149 5.3999 19.8001 5.3999H4.2001C4.18594 5.3999 4.17394 5.40698 4.16002 5.40794C4.12092 5.41175 4.08232 5.41955 4.04482 5.43122C4.00773 5.43966 3.97155 5.45172 3.93682 5.46722C3.90524 5.48438 3.87535 5.50447 3.84754 5.52722C3.81334 5.5511 3.7818 5.57858 3.75346 5.60918C3.74482 5.6189 3.73282 5.62358 3.72478 5.63402C3.71294 5.65483 3.7024 5.67635 3.69322 5.69846C3.6477 5.76705 3.62075 5.84627 3.61498 5.92838C3.60849 5.95188 3.60352 5.97577 3.6001 5.9999V17.9999C3.6001 18.159 3.66331 18.3116 3.77583 18.4242C3.88836 18.5367 4.04097 18.5999 4.2001 18.5999H19.8001C19.9592 18.5999 20.1118 18.5367 20.2244 18.4242C20.3369 18.3116 20.4001 18.159 20.4001 17.9999V5.9999C20.3968 5.97586 20.392 5.95205 20.3857 5.92862ZM18.0361 6.5999L12.0001 11.2428L5.9641 6.5999H18.0361ZM4.8001 17.3999V7.2185L11.6345 12.4757C11.7393 12.5563 11.8679 12.6 12.0001 12.6C12.1323 12.6 12.2609 12.5563 12.3657 12.4757L19.2001 7.2185V17.3999H4.8001Z" fill="black"/>
</svg>
