<svg width="13" height="20" viewBox="0 0 13 20" fill="none" xmlns="http://www.w3.org/2000/svg">
<path d="M12.8179 10.3689L0.893599 19.5133C0.828226 19.5628 0.751168 19.5923 0.670893 19.5987C0.590619 19.6051 0.510235 19.588 0.438575 19.5493C0.366915 19.5106 0.306753 19.4519 0.264699 19.3796C0.222644 19.3072 0.200327 19.224 0.200198 19.1392V0.86189C0.199933 0.77687 0.222009 0.693435 0.263979 0.620831C0.30595 0.548226 0.366174 0.489288 0.437978 0.450553C0.509783 0.411817 0.590361 0.394795 0.670782 0.401375C0.751202 0.407954 0.828326 0.437877 0.893599 0.487827L12.8179 9.62648C12.8743 9.66847 12.9202 9.7241 12.9519 9.78869C12.9836 9.85327 13.0002 9.92494 13.0002 9.99767C13.0002 10.0704 12.9836 10.1421 12.9519 10.2066C12.9202 10.2712 12.8743 10.3269 12.8179 10.3689Z" fill="#202020"/>
</svg>
