<?xml version="1.0" standalone="no"?>
<!DOCTYPE svg PUBLIC "-//W3C//DTD SVG 1.1//EN" "http://www.w3.org/Graphics/SVG/1.1/DTD/svg11.dtd" >
<svg xmlns="http://www.w3.org/2000/svg">
<metadata>Generated by IcoMoon</metadata>
<defs>
<font id="icomoon" horiz-adv-x="1024">
<font-face units-per-em="1024" ascent="960" descent="-64" />
<missing-glyph horiz-adv-x="1024" />
<glyph unicode="&#x20;" horiz-adv-x="512" d="" />
<glyph unicode="&#xe900;" glyph-name="icon-add-circle" d="M747.52 489.813h-193.707v193.707c0 23.040-18.773 41.813-41.813 41.813s-41.813-18.773-41.813-41.813v-193.707h-193.707c-23.040 0-41.813-18.773-41.813-41.813s18.773-41.813 41.813-41.813h193.707v-193.707c0-23.040 18.773-41.813 41.813-41.813s41.813 18.773 41.813 41.813v193.707h193.707c23.040 0 41.813 18.773 41.813 41.813s-18.773 41.813-41.813 41.813zM512 931.413c-266.667 0-483.413-216.747-483.413-483.413s216.747-483.413 483.413-483.413 483.413 216.747 483.413 483.413-216.747 483.413-483.413 483.413zM512 48.213c-220.587 0-399.787 179.2-399.787 399.787s179.2 399.787 399.787 399.787 399.787-179.2 399.787-399.787-179.2-399.787-399.787-399.787z" />
<glyph unicode="&#xe901;" glyph-name="icon-add-favorite" d="M894.72 784.213h-46.507v46.507c0 23.040-18.773 41.813-41.813 41.813s-41.813-18.773-41.813-41.813v-46.507h-46.507c-23.040 0-41.813-18.773-41.813-41.813s18.773-41.813 41.813-41.813h46.507v-46.507c0-23.040 18.773-41.813 41.813-41.813s41.813 18.773 41.813 41.813v46.507h46.507c23.040 0 41.813 18.773 41.813 41.813s-18.773 41.813-41.813 41.813zM835.84 521.813h-239.787l-74.24 227.84c-5.12 16.213-20.907 26.88-39.68 26.88s-34.56-10.667-39.68-26.88l-74.24-227.84h-238.933c-17.92 0-34.133-11.52-39.68-29.013-5.547-17.067 0.427-35.84 15.36-46.507l193.707-140.8-73.813-227.84c-5.547-17.067 0.427-35.84 15.36-46.507 7.253-5.12 15.787-8.107 24.32-8.107s17.493 2.56 24.32 8.107l193.707 140.8 193.707-140.8c7.253-5.12 15.787-8.107 24.32-8.107s17.493 2.56 24.32 8.107c14.507 10.667 20.907 29.44 14.933 46.507l-73.813 227.84 193.707 140.8c14.507 10.667 20.907 29.44 15.36 46.507s-21.333 29.013-39.68 29.013zM593.067 355.413c-14.507-10.667-20.907-29.44-15.36-46.507l43.947-134.827-114.347 83.2c-7.253 5.12-15.787 8.107-24.32 8.107s-17.493-2.56-24.32-8.107l-114.347-83.2 43.947 134.4c5.547 17.067-0.427 35.84-15.36 46.507l-114.347 83.2h141.653c17.92 0 34.133 11.52 39.68 29.013l43.52 134.4 43.947-134.4c5.547-17.067 21.333-29.013 39.68-29.013h141.653l-114.347-83.2z" />
<glyph unicode="&#xe902;" glyph-name="icon-add-user" d="M894.72 784.213h-46.507v46.507c0 23.040-18.773 41.813-41.813 41.813s-41.813-18.773-41.813-41.813v-46.507h-46.507c-23.040 0-41.813-18.773-41.813-41.813s18.773-41.813 41.813-41.813h46.507v-46.507c0-23.040 18.773-41.813 41.813-41.813s41.813 18.773 41.813 41.813v46.507h46.507c23.040 0 41.813 18.773 41.813 41.813s-18.773 41.813-41.813 41.813zM531.2 460.373h-156.587c-158.293 0-287.147-128.853-287.147-287.573v-107.52c0-23.040 18.773-41.813 41.813-41.813h647.68c23.040 0 41.813 18.773 41.813 41.813v107.52c0 158.293-128.853 287.573-287.147 287.573zM735.147 107.093h-564.053v65.707c0 112.64 91.307 203.947 203.947 203.947h156.587c112.64 0 203.947-91.307 203.947-203.947v-65.707zM453.12 494.933c104.107 0 189.013 84.907 189.013 189.013s-84.907 189.013-189.013 189.013-189.013-84.907-189.013-189.013 84.907-189.013 189.013-189.013zM453.12 789.333c58.027 0 105.387-47.36 105.387-105.387s-47.36-105.387-105.387-105.387-105.387 47.36-105.387 105.387 47.36 105.387 105.387 105.387z" />
<glyph unicode="&#xe903;" glyph-name="icon-add" d="M796.587 489.813h-242.773v242.773c0 23.040-18.773 41.813-41.813 41.813s-41.813-18.773-41.813-41.813v-242.773h-242.773c-23.040 0-41.813-18.773-41.813-41.813s18.773-41.813 41.813-41.813h242.773v-242.773c0-23.040 18.773-41.813 41.813-41.813s41.813 18.773 41.813 41.813v242.773h242.773c23.040 0 41.813 18.773 41.813 41.813s-18.773 41.813-41.813 41.813z" />
<glyph unicode="&#xe904;" glyph-name="icon-alarm" d="M553.813 439.893v167.253c0 23.040-18.773 41.813-41.813 41.813s-41.813-18.773-41.813-41.813v-184.747c0-11.093 4.267-21.76 12.373-29.44l130.56-130.56c7.68-7.68 18.347-12.373 29.44-12.373s21.76 4.267 29.44 12.373c16.213 16.213 16.213 42.667 0 58.88l-118.187 118.187zM181.76 682.667l89.173 89.173c7.68 7.68 12.373 18.347 12.373 29.44s-4.267 21.76-12.373 29.44-18.347 12.373-29.44 12.373-21.76-4.267-29.44-12.373l-89.173-89.173c-7.68-7.68-12.373-18.347-12.373-29.44s4.267-21.76 12.373-29.44c7.68-7.68 18.347-12.373 29.44-12.373s21.76 4.267 29.44 12.373zM901.547 741.547l-89.173 89.173c-7.68 7.68-18.347 12.373-29.44 12.373s-21.76-4.267-29.44-12.373-12.373-18.347-12.373-29.44 4.267-21.76 12.373-29.44l89.173-89.173c7.68-7.68 18.347-12.373 29.44-12.373s21.76 4.267 29.44 12.373c7.68 7.68 12.373 18.347 12.373 29.44s-4.267 21.76-12.373 29.44zM510.72 795.733c-205.227 0-371.627-166.4-371.627-371.2s166.827-371.627 371.627-371.627 371.2 166.827 371.2 371.627-166.827 371.2-371.627 371.2zM510.72 136.107c-158.72 0-288 129.28-288 288s129.28 288 288 288 288-129.28 288-288-129.28-288-288-288z" />
<glyph unicode="&#xe905;" glyph-name="icon-alert" d="M541.44 352.427h12.373v377.6h-83.627v-377.6h71.253zM512 313.173c-39.253 0-71.253-32-71.253-71.253s32-71.253 71.253-71.253 71.253 32 71.253 71.253-32 71.253-71.253 71.253zM512 931.413c-266.667 0-483.413-216.747-483.413-483.413s216.747-483.413 483.413-483.413 483.413 216.747 483.413 483.413-216.747 483.413-483.413 483.413zM512 48.213c-220.587 0-399.787 179.2-399.787 399.787s179.2 399.787 399.787 399.787 399.787-179.2 399.787-399.787-179.2-399.787-399.787-399.787z" />
<glyph unicode="&#xe906;" glyph-name="icon-android" d="M709.973 577.28c-65.707-0.853-131.84 0-197.547 0-64.853 0-129.707-0.853-194.987 0-25.6 0.427-35.84-7.253-35.413-34.133 1.28-95.573 0-179.2 0.427-274.773 0-44.8 20.48-66.987 65.707-69.12 20.48-1.28 26.453-9.813 26.027-28.587-0.853-26.88-0.853-53.333 0-80.213 1.28-30.72 25.173-54.613 52.053-54.613 30.293 0 51.2 21.76 52.053 56.32 0.853 27.733 0.853 55.467 0 83.2-0.427 25.173 16.64 23.467 33.28 23.467 16.213 0 34.133 2.133 33.28-23.040-0.427-26.88 0-53.333 0-80.213 0.853-36.693 20.48-59.307 51.627-59.307 28.587 0 51.627 25.6 52.48 60.16 0.853 23.893 0.853 47.787 0 71.68-0.853 20.907 5.547 30.72 28.587 31.573 40.96 1.28 62.72 24.747 62.72 66.133 0.427 97.28 0 183.040 0.427 280.747 0 23.893-8.96 31.573-32 31.573zM861.867 527.36c-0.853 33.28-23.040 55.893-52.907 55.893s-50.773-22.187-51.2-56.747c-0.427-66.987-0.427-122.027 0-189.013 0-36.693 20.907-59.307 52.053-58.88 30.72 0.853 51.627 23.893 52.48 59.733 0.427 32.427 0 64.853 0 97.28 0 34.56 0.853 57.173 0 91.307zM216.32 583.253c-29.867 0-53.333-21.76-53.76-55.040-0.853-68.693-0.853-125.867 0-194.56 0.427-32.853 23.893-55.467 53.76-55.040 29.013 0 49.067 22.187 49.92 55.040 0.853 34.56 0 68.693 0 103.253s0.427 57.173 0 91.307c-0.853 32.853-21.333 54.613-49.92 55.040zM317.013 600.32c64.853 0 130.133 0 194.987 0s130.133 0 194.987 0c34.56 0 37.547 4.693 30.293 39.253-11.947 57.173-43.093 101.547-90.88 134.4-16.213 11.093-19.2 20.907-7.68 37.12 7.68 10.667 12.8 23.467 18.773 35.413 2.133 4.267 2.987 9.813-1.707 12.8-5.12 2.987-9.387 0-11.947-4.267-7.68-13.227-15.787-26.453-22.613-39.68s-15.787-17.067-30.293-12.373c-52.48 16.213-105.387 16.213-157.867 0-14.507-4.693-23.467-0.853-30.293 12.373-6.827 13.653-14.507 26.88-22.613 39.68-2.56 4.267-7.253 7.253-11.947 4.267-5.12-2.987-3.84-8.533-1.707-12.8 5.973-11.947 11.093-24.747 18.773-35.413 11.52-16.213 8.533-26.027-7.68-37.12-47.36-32.853-78.933-77.227-90.88-134.4-7.253-34.56-3.84-39.253 30.293-39.253zM615.253 718.933c8.533 0 14.507-4.693 14.933-13.227 0.853-8.96-4.693-14.933-12.8-15.36-9.813-0.853-15.36 5.547-17.067 14.933 0.853 8.96 5.973 13.653 14.933 13.653zM408.32 718.933c8.96 0 13.227-5.12 14.933-13.227-1.707-10.24-7.253-16.213-17.067-15.787-8.533 0.427-13.653 6.4-12.8 15.36s6.4 13.227 14.933 13.227z" />
<glyph unicode="&#xe907;" glyph-name="icon-antplus-off" d="M995.84 94.293l-913.92 770.987c-17.493 14.933-43.947 12.8-58.88-5.12s-12.8-43.947 5.12-58.88l37.12-31.573c-4.267-15.36-7.253-31.147-7.253-47.787v-548.267c0-98.987 80.64-179.627 179.627-179.627h548.267c51.627 0 98.133 22.187 130.987 57.6l24.747-20.907c17.493-14.933 43.947-12.8 58.88 5.12 14.933 17.493 12.8 43.947-5.12 58.88zM410.027 479.573c-15.36 3.413-29.013 12.8-37.547 27.307-0.853 1.707-1.28 3.84-1.707 5.547l39.253-33.28zM786.347 77.653h-548.693c-52.907 0-96.427 43.093-96.427 96.427v532.053l85.333-72.107c-19.2-9.813-32.853-29.013-32.853-52.053 0-32.427 26.453-58.88 58.88-58.88 16.213 0 30.72 6.4 41.387 17.067l11.52-2.987c0-20.907 4.693-41.387 15.36-59.733 15.787-27.307 40.96-46.933 71.68-55.040 10.24-2.56 20.48-4.267 30.72-4.267 15.787 0 31.147 4.267 46.080 10.667l189.44-159.573h-85.76v-40.96h45.227v-81.493h40.96v81.493h45.227v2.133l30.72-26.027v-26.88h28.16v-30.72h40.533l39.68-33.28 9.813-8.533c-17.493-17.067-40.96-27.733-67.413-27.733zM266.667 818.347h519.68c52.907 0 96.427-43.093 96.427-96.427v-423.253l73.813-62.293 9.387-8.107v494.080c0 98.987-80.64 179.627-179.627 179.627h-548.693c-20.48 0-39.68-4.267-57.6-10.24l69.973-59.307 16.213-13.653zM255.147 273.067l-69.973-115.627 34.987-20.907 13.227 21.76h72.107l11.093-20.907 35.84 19.2-61.867 115.627-35.413 0.853zM258.133 198.827l13.653 22.187 11.947-22.187h-25.6zM496.213 196.267l-79.787 80.64-34.987-14.507v-115.627h40.533v66.133l80.213-80.64 34.987 14.507v115.627h-40.96v-66.133z" />
<glyph unicode="&#xe908;" glyph-name="icon-antplus" d="M786.347 901.973h-548.693c-98.987 0-179.627-80.64-179.627-179.627v-548.267c0-98.987 80.64-179.627 179.627-179.627h548.267c98.987 0 179.627 80.64 179.627 179.627v548.267c0 98.987-80.64 179.627-179.627 179.627zM882.773 174.080c0-52.907-43.093-96.427-96.427-96.427h-548.693c-52.907 0-96.427 43.093-96.427 96.427v548.267c0 52.907 43.093 96.427 96.427 96.427h548.267c52.907 0 96.427-43.093 96.427-96.427v-548.267zM255.573 273.493l-69.973-115.627 34.987-20.907 13.227 21.76h72.107l11.093-20.907 35.84 19.2-61.867 115.627-35.413 0.853zM258.56 199.253l13.653 22.187 11.947-22.187h-25.6zM805.12 249.173h-40.96v-30.72h-28.16v-40.533h28.16v-30.72h40.96v30.72h26.453v40.533h-26.453v30.72zM573.867 228.693h45.227v-81.493h40.96v81.493h45.227v40.96h-131.413v-40.96zM454.827 650.24c-20.48 5.547-41.813 5.12-61.867-0.853l-6.4 11.52c4.693 8.533 8.533 17.92 8.533 28.587 0 32.427-26.453 58.88-58.88 58.88s-58.88-26.453-58.88-58.88 26.453-58.88 58.88-58.88c0 0 0 0 0 0l5.973-10.24c-7.68-7.68-14.507-16.213-19.627-25.6l-12.8 3.413c-6.827 24.747-28.587 43.52-55.893 43.52-32.427 0-58.88-26.453-58.88-58.88s26.453-58.88 58.88-58.88c16.213 0 30.72 6.4 41.387 17.067l11.52-2.987c0-20.907 4.693-41.387 15.36-59.733 15.787-27.307 40.96-46.933 71.68-55.040 10.24-2.56 20.48-4.267 30.72-4.267 20.48 0 40.533 5.547 58.88 15.787 27.307 15.787 46.933 40.96 55.040 71.68 8.107 30.293 3.84 62.293-11.947 89.173-15.787 27.307-40.96 46.933-71.68 55.040zM453.973 485.547c-28.16-16.213-64-6.4-80.64 21.76-8.107 14.080-9.813 29.867-5.973 44.373 0 0 0 0 0 0s0 0 0 0c3.84 14.507 13.227 27.733 27.307 35.84 9.387 5.12 19.2 7.68 29.44 7.68 20.48 0 40.107-10.667 51.2-29.44 16.213-28.16 6.4-64.427-21.76-80.64zM496.64 196.693l-79.787 80.64-34.987-14.507v-115.627h40.533v66.133l80.213-80.64 34.987 14.507v115.627h-40.96v-66.133z" />
<glyph unicode="&#xe909;" glyph-name="icon-apple" d="M673.707 856.747c-83.2 2.56-177.067-105.813-161.28-186.027 80.64-10.667 173.227 86.613 161.28 186.027zM822.613 578.987c-2.56 3.84-5.12 7.253-7.68 10.24-53.333 61.867-120.747 81.92-199.253 63.573-26.027-5.973-50.773-17.493-76.373-26.88-14.507-5.12-29.013-5.547-43.52 0-12.8 4.693-25.6 9.387-38.4 14.507-31.147 12.8-63.147 20.907-96.853 15.36-70.827-11.52-121.6-50.773-153.173-114.773-30.293-61.013-32-126.293-21.76-192 14.080-90.88 50.773-172.8 107.947-244.907 15.36-19.2 31.573-37.547 52.48-51.2 16.64-10.667 34.56-15.36 55.040-13.653 23.040 1.707 43.093 11.52 63.573 20.053 29.867 12.373 61.013 17.493 93.013 10.24 18.347-4.267 36.267-11.947 54.187-19.2 49.067-19.627 89.6-12.8 125.44 25.6 20.48 21.76 37.973 46.507 55.040 71.253 23.040 33.28 39.68 69.973 52.053 108.373-132.693 59.733-150.187 238.507-21.76 323.413z" />
<glyph unicode="&#xe90a;" glyph-name="icon-arrow-backward" d="M894.72 487.68h-665.6l164.693 166.4c16.213 16.213 16.213 42.667 0 58.88-8.107 7.68-18.347 11.947-29.44 11.947s-21.76-4.267-29.44-12.373l-235.093-237.227c-3.84-3.84-5.973-8.107-7.68-11.093-2.56-5.973-3.84-10.24-4.267-14.933v-0.853s0-2.56 0-2.56c0-2.56 0.427-4.267 0.853-5.12 0.853-9.387 5.12-18.347 11.947-24.747l235.947-233.387c7.68-7.68 18.347-11.947 29.44-11.947s21.76 4.267 29.867 12.373c7.68 8.107 11.947 18.347 11.947 29.44s-4.267 21.76-12.373 29.44l-163.84 162.133h663.893c23.040 0 41.813 18.773 41.813 41.813s-18.773 41.813-41.813 41.813z" />
<glyph unicode="&#xe90b;" glyph-name="icon-arrow-downward" d="M776.96 331.093c-7.68 7.68-18.347 11.947-29.44 11.947s-21.76-4.267-29.867-12.373l-162.133-163.84v663.893c0 23.040-18.773 41.813-41.813 41.813s-41.813-18.773-41.813-41.813v-665.6l-166.4 164.693c-8.107 7.68-18.347 11.947-29.44 11.947s-21.76-4.267-29.44-12.373c-16.213-16.213-16.213-42.667 0-58.88l237.653-234.667c3.84-3.84 8.107-6.827 13.227-8.96s10.667-3.413 16.213-3.413c11.52 0 22.187 4.693 29.867 12.8l233.387 235.947c7.68 8.107 11.947 18.347 11.947 29.44s-4.267 21.76-12.373 29.44z" />
<glyph unicode="&#xe90c;" glyph-name="icon-arrow-forward" d="M935.68 455.253c-0.853 9.387-5.12 18.347-11.947 24.747l-235.947 233.387c-7.68 7.68-18.347 11.947-29.44 11.947s-21.76-4.267-29.867-12.373c-7.68-8.107-11.947-18.347-11.947-29.44s4.267-21.76 12.373-29.44l163.84-162.133h-663.467c-23.040 0-41.813-18.773-41.813-41.813s18.773-41.813 41.813-41.813h665.6l-164.693-166.4c-16.213-16.213-16.213-42.667 0-58.88 8.107-7.68 18.347-11.947 29.44-11.947s21.76 4.267 29.867 12.373l234.667 237.653c3.84 3.84 5.973 8.107 7.68 11.093 2.987 5.973 3.84 10.24 4.267 14.933v0s0 2.987 0 2.987c0 2.56-0.427 4.267-0.853 5.12z" />
<glyph unicode="&#xe90d;" glyph-name="icon-arrow-upward" d="M776.96 625.493l-237.653 234.667c-3.84 3.84-8.107 6.827-13.227 8.96s-10.24 2.987-15.36 3.413c-1.707 0-3.413 0.427-5.12 0.427-11.093 0-18.773-6.4-24.32-11.947l-234.24-237.227c-7.68-8.107-11.947-18.347-11.947-29.44s4.267-21.76 12.373-29.44c7.68-7.68 18.347-11.947 29.44-11.947s21.76 4.267 29.867 12.373l162.133 163.84v-663.893c0-23.040 18.773-41.813 41.813-41.813s41.813 18.773 41.813 41.813v665.6l166.4-164.693c8.107-7.68 18.347-11.947 29.44-11.947s21.76 4.267 29.44 12.373c16.213 16.213 16.213 42.667 0 58.88z" />
<glyph unicode="&#xe90e;" glyph-name="icon-battery-25" d="M730.453 695.893h-599.893c-43.947 0-79.787-39.253-79.787-87.467v-320.427c0-48.213 35.84-87.467 79.787-87.467h599.467c49.92 0 90.88 39.253 90.88 87.467v320.427c0 48.213-40.533 87.467-90.88 87.467zM737.707 288s-2.987-4.267-7.253-4.267h-468.907v328.96h468.48c4.693 0 7.253-2.987 7.253-4.267v-320.427zM943.787 566.187h-58.88v-235.52h58.88c16.213 0 29.44 13.227 29.44 29.44v176.64c0 16.213-13.227 29.44-29.44 29.44z" />
<glyph unicode="&#xe90f;" glyph-name="icon-battery-50" d="M730.453 695.893h-594.347c-46.933 0-85.333-39.253-85.333-87.467v-320.427c0-48.213 38.4-87.467 85.333-87.467h593.92c49.92 0 90.88 39.253 90.88 87.467v320.427c0 48.213-40.533 87.467-90.88 87.467zM737.707 288s-2.987-4.267-7.253-4.267h-291.84v328.96h291.84c4.693 0 7.253-2.987 7.253-4.267v-320.427zM943.787 566.187h-58.88v-235.52h58.88c16.213 0 29.44 13.227 29.44 29.44v176.64c0 16.213-13.227 29.44-29.44 29.44z" />
<glyph unicode="&#xe910;" glyph-name="icon-battery-75" d="M730.453 695.893h-591.787c-48.64 0-88.32-39.253-88.32-87.467v-320.427c0-48.213 39.68-87.467 88.32-87.467h591.36c49.92 0 90.88 39.253 90.88 87.467v320.427c0 48.213-40.533 87.467-90.88 87.467zM737.707 288s-2.987-4.267-7.253-4.267h-56.32v328.96h56.32c4.693 0 7.253-2.987 7.253-4.267v-320.427zM943.787 566.187h-58.88v-235.52h58.88c16.213 0 29.44 13.227 29.44 29.44v176.64c0 16.213-13.227 29.44-29.44 29.44z" />
<glyph unicode="&#xe911;" glyph-name="icon-battery-empty" d="M727.893 695.893h-588.8c-49.92 0-90.88-39.253-90.88-87.467v-320.427c0-48.213 40.533-87.467 90.88-87.467h588.8c49.92 0 90.88 39.253 90.88 87.467v320.427c0 48.213-40.533 87.467-90.88 87.467zM735.147 288s-2.987-4.267-7.253-4.267h-588.8c-4.693 0-7.253 2.987-7.253 4.267v320.427s2.987 4.267 7.253 4.267h588.8c4.693 0 7.253-2.987 7.253-4.267v-320.427zM946.347 566.187h-58.88v-235.52h58.88c16.213 0 29.44 13.227 29.44 29.44v176.64c0 16.213-13.227 29.44-29.44 29.44z" />
<glyph unicode="&#xe912;" glyph-name="icon-battery-full" d="M730.453 695.893h-588.8c-49.92 0-90.88-39.253-90.88-87.467v-320.427c0-48.213 40.533-87.467 90.88-87.467h588.8c49.92 0 90.88 39.253 90.88 87.467v320.427c0 48.213-40.533 87.467-90.88 87.467zM943.787 565.76h-58.88v-235.52h58.88c16.213 0 29.44 13.227 29.44 29.44v176.64c0 16.213-13.227 29.44-29.44 29.44z" />
<glyph unicode="&#xe913;" glyph-name="icon-bell-notification" d="M846.933 207.787c-29.867 13.227-53.333 34.987-55.040 41.813v223.573c0 138.667-101.973 255.147-238.507 275.627v136.96c0 23.040-18.773 41.813-41.813 41.813s-41.813-18.773-41.813-41.813v-136.533c-136.96-20.48-238.507-137.387-238.507-275.627v-224c-1.28-5.973-23.467-27.307-55.040-41.387-17.92-8.107-27.733-27.733-23.467-46.933s21.333-32.853 40.533-32.853h197.973c-0.853-5.547-1.28-11.093-1.28-16.64 0-66.987 54.613-121.6 121.6-121.6s121.6 54.613 121.6 121.6c0 5.547-0.427 11.093-1.28 16.64h197.973c19.627 0 36.693 13.653 40.96 32.853s-5.973 38.827-23.893 46.933zM305.493 211.627c5.973 12.373 9.387 25.173 9.387 37.973v224c0 108.373 88.32 196.693 196.693 196.693s196.693-88.32 196.693-196.693v-224c0-12.8 2.987-25.6 9.387-37.973h-411.733z" />
<glyph unicode="&#xe914;" glyph-name="icon-bkool-points" d="M661.76 456.96c40.107 13.227 64.427 46.507 64.427 89.6 0 66.987-53.333 107.093-142.507 107.093h-296.96v-410.88h298.667c96.427 0 151.467 42.667 151.467 116.907 0 51.627-26.027 85.333-75.52 97.707zM569.173 310.187h-190.72v275.2h186.027c58.88 0 67.84-29.44 67.84-47.36 0-23.040-6.827-54.187-67.84-54.187h-133.12l-23.893-64v-1.28h161.707c49.067 0 73.813-18.347 73.813-54.613s-24.747-54.613-73.813-54.613zM512 931.413c-266.667 0-483.413-216.747-483.413-483.413s216.747-483.413 483.413-483.413 483.413 216.747 483.413 483.413-216.747 483.413-483.413 483.413zM512 48.213c-220.587 0-399.787 179.2-399.787 399.787s179.2 399.787 399.787 399.787 399.787-179.2 399.787-399.787-179.2-399.787-399.787-399.787z" />
<glyph unicode="&#xe915;" glyph-name="icon-bkool-trainer" d="M951.893 237.227c-18.773 0-34.56-12.373-39.68-29.44h-145.92v447.573c20.907 2.133 37.547 20.053 37.547 41.387 0 23.040-18.773 41.813-41.813 41.813h-108.8c-23.040 0-41.813-18.773-41.813-41.813s18.773-41.813 41.813-41.813h29.44v-447.573h-122.88v47.36c52.48 17.92 88.32 66.987 88.32 122.88 0 71.68-58.453 130.133-130.133 130.133s-130.133-58.453-130.133-130.133c0-55.893 35.84-104.96 88.32-122.88v-47.36h-119.467v451.84c14.933 6.4 24.747 20.907 24.747 37.547 0 23.040-18.773 41.813-41.813 41.813h-42.667v20.907c0 23.040-18.773 41.813-41.813 41.813s-41.813-18.773-41.813-41.813v-23.893c-15.787-5.973-26.453-20.907-26.453-38.4 0-23.040 18.773-41.813 41.813-41.813h44.373v-447.573h-160.853c-5.12 17.067-21.333 29.44-39.68 29.44-23.040 0-41.813-18.773-41.813-41.813v-58.88c0-23.040 18.773-41.813 41.813-41.813 18.773 0 34.56 12.373 39.68 29.44h799.573c5.12-17.067 21.333-29.44 39.68-29.44 23.040 0 41.813 18.773 41.813 41.813v58.88c0 23.040-18.773 41.813-41.813 41.813zM518.4 331.52c-25.6 0-46.507 20.907-46.507 46.507s20.907 46.507 46.507 46.507 46.507-20.907 46.507-46.507-20.907-46.507-46.507-46.507z" />
<glyph unicode="&#xe916;" glyph-name="icon-bluetooth-off" d="M449.707 847.787h124.587c121.173 0 219.733-98.56 219.733-219.733v-242.773l81.067-67.84c0.853 3.413 2.133 7.253 2.133 11.093v299.52c0 167.253-136.107 303.36-303.36 303.36h-124.587c-78.933 0-152.747-29.867-209.493-84.053l65.28-54.187c40.107 34.987 90.453 55.040 144.213 55.040zM640 513.707l37.12 36.267c16.213 15.787 17.067 41.387 1.707 58.027l-136.107 149.333c-7.68 8.533-19.2 13.653-30.72 13.653-5.12 0-10.24-0.853-15.36-2.987-15.787-5.973-26.453-21.76-26.453-38.827v-73.813l73.387-61.013c5.973 7.253 10.24 16.213 10.24 26.453v0.853l36.267-39.68-14.507-14.080 64.427-53.76zM953.6 131.84l-829.44 695.893c-7.253 6.4-17.067 9.813-26.88 9.813-12.373 0-23.893-5.547-32-14.933-7.253-8.533-10.667-19.2-9.813-30.293s6.4-21.333 14.933-28.587l84.053-70.4c-5.547-23.467-8.107-45.227-8.107-65.707v-360.107c0-167.253 136.107-303.36 303.36-303.36h124.587c111.36 0 211.2 58.88 264.533 154.88l61.013-51.2c7.253-6.4 17.067-9.813 26.88-9.813 12.373 0 23.893 5.547 32 14.933 7.253 8.533 10.667 19.2 9.387 30.293-0.853 11.093-6.4 21.333-14.933 28.587zM553.813 358.4l43.52-36.693-43.52-51.2v87.467zM574.293 47.787h-124.587c-121.173 0-219.733 98.56-219.733 219.733v360.533s0 1.707 0 2.133l221.013-185.173-138.24-137.813c-8.107-7.68-12.373-18.347-12.373-29.44s4.267-21.76 11.947-29.44c7.68-8.107 18.347-12.373 29.44-12.373s21.333 4.267 29.44 11.947l98.987 98.56v-189.013c0-17.493 11.093-33.28 27.307-39.253 4.267-1.707 9.387-2.56 14.507-2.56 12.373 0 23.893 5.547 31.573 14.507l117.333 137.387 111.36-93.44c-35.84-77.227-113.067-126.72-198.4-126.72z" />
<glyph unicode="&#xe917;" glyph-name="icon-bluetooth" d="M574.293 931.413h-124.587c-167.253 0-303.36-136.107-303.36-303.36v-360.107c0-167.253 136.107-303.36 303.36-303.36h124.587c167.253 0 303.36 136.107 303.36 303.36v360.107c0 167.253-136.107 303.36-303.36 303.36zM794.027 267.947c0-121.173-98.56-219.733-219.733-219.733h-124.587c-121.173 0-219.733 98.56-219.733 219.733v360.107c0 121.173 98.56 219.733 219.733 219.733h124.587c121.173 0 219.733-98.56 219.733-219.733v-360.107zM678.827 608l-136.107 149.333c-7.68 8.533-19.2 13.653-30.72 13.653-5.12 0-10.24-0.853-15.36-2.987-15.787-5.973-26.453-21.76-26.453-38.827v-183.040l-99.413 98.133c-7.68 7.68-18.347 11.947-29.44 11.947s-21.76-4.267-29.867-12.373c-16.213-16.64-15.787-43.093 0-58.88l139.947-138.24-139.947-139.52c-8.107-7.68-12.373-18.347-12.373-29.44s4.267-21.76 11.947-29.44c7.68-7.68 18.347-12.373 29.44-12.373s21.333 4.267 29.44 11.947l98.987 98.56v-189.013c0-17.067 10.667-32.853 26.88-38.827 4.693-1.707 9.813-2.56 14.933-2.56 11.947 0 23.467 5.12 31.147 14.080l136.107 154.453c14.507 16.64 13.653 41.813-2.133 57.173l-106.24 104.533 105.813 103.68c16.213 15.787 17.067 41.387 1.707 58.027zM590.507 310.187l-37.12-41.813v78.507l37.12-36.693zM553.387 546.133v75.52l36.267-40.107-36.267-35.413z" />
<glyph unicode="&#xe918;" glyph-name="icon-cadence-off" d="M512.427 730.027c75.093 0 148.053-29.867 200.533-82.347 72.533-72.107 98.987-175.787 72.107-273.92l66.133-55.893c3.84 4.267 7.253 8.96 8.96 14.507 43.947 132.267 9.813 275.627-88.32 373.76-67.84 67.84-162.56 106.667-259.413 106.667-60.587 0-120.32-14.933-172.8-43.52-5.12-2.56-9.387-6.4-12.8-11.093l66.56-55.893c37.12 17.493 78.080 27.307 119.467 27.307zM954.88 132.267l-165.12 138.667s-1.707 1.28-1.707 1.28l-1.28 1.28s-203.52 170.667-203.52 170.667c1.707 20.907-5.547 40.533-19.627 54.613-13.227 13.227-30.72 20.48-49.92 20.48-5.973 0-11.947-0.853-17.493-2.133l-370.773 310.613c-7.68 6.4-17.067 9.813-26.88 9.813v0c-12.373 0-23.893-5.547-32-14.933-7.253-8.533-10.667-19.2-9.813-30.293s6.4-21.333 14.933-28.587l137.387-115.2c-37.547-56.747-58.88-121.173-61.013-187.307h-108.373l20.907-20.907 128.427-128.853 8.533 8.533 140.8 141.227h-107.52c2.133 46.507 16.64 92.16 41.813 133.547l169.813-142.507c-1.707-20.907 5.547-40.533 19.627-54.613 13.227-13.227 30.72-20.48 49.92-20.48 5.973 0 11.947 0.853 17.493 2.133l169.813-142.507c-51.627-46.080-117.333-71.253-186.88-71.253-75.52 0-146.347 29.44-199.68 82.773-7.68 7.68-18.347 12.373-29.44 12.373s-21.76-4.267-29.44-12.373c-16.213-16.213-16.213-42.667 0-58.88 69.12-69.12 160.853-107.093 258.56-107.093s183.467 35.413 251.307 100.267l136.533-114.347c7.253-6.4 17.067-9.813 26.88-9.813 12.373 0 23.893 5.547 32 14.933 7.253 8.533 10.667 19.2 9.387 30.293-0.853 11.093-6.4 21.333-14.933 28.587z" />
<glyph unicode="&#xe919;" glyph-name="icon-cadence-rhythm" d="M364.8 712.96c-146.347 0-264.96-118.613-264.96-264.96s118.613-264.96 264.96-264.96 264.96 118.613 264.96 264.96-118.613 264.96-264.96 264.96zM835.84 536.32c-48.64 0-88.32-39.68-88.32-88.32s39.68-88.32 88.32-88.32 88.32 39.68 88.32 88.32-39.68 88.32-88.32 88.32z" />
<glyph unicode="&#xe91a;" glyph-name="icon-cadence-speedometer-off" d="M782.933 321.707c4.693-10.24 13.227-17.493 23.893-21.333 4.267-1.707 8.96-2.56 14.080-2.56 17.493 0 33.28 11.093 39.253 27.733 29.867 84.907 27.733 177.493-6.4 260.693-6.4 15.787-21.76 26.027-38.827 26.027-5.547 0-10.667-0.853-15.787-2.987-21.333-8.96-31.573-33.28-22.613-54.613 26.453-64.427 28.16-135.68 5.12-201.387-3.84-10.667-2.987-21.76 1.707-32zM355.84 687.787c7.253 0 14.080 1.707 20.48 5.547 41.813 23.893 90.027 36.267 139.093 36.267 37.12 0 72.96-7.253 106.667-20.907 5.12-2.133 10.24-2.987 15.787-2.987 17.067 0 32 10.24 38.4 26.027 8.533 21.333-1.28 45.653-22.613 54.187-43.947 17.92-90.453 27.307-138.667 27.307-63.573 0-125.867-16.213-180.48-46.933-20.053-11.52-26.88-36.693-15.787-56.747 7.253-13.227 21.333-21.333 36.267-21.333zM946.347 132.693l-361.813 303.36c1.28 7.253 1.28 14.507 0 21.76l285.867 285.867c16.213 16.213 16.213 42.667 0 58.88-7.68 7.68-18.347 12.373-29.44 12.373s-21.76-4.267-29.44-12.373l-285.867-285.867c-3.84 0.427-7.253 0.853-11.093 0.853-7.68 0-15.36-1.28-22.613-3.84l-375.040 314.88c-7.253 6.4-17.067 9.813-26.88 9.813-12.373 0-23.893-5.547-32-14.933-14.933-17.493-12.373-43.947 5.12-58.88l144.64-121.173c-35.84-55.893-55.467-118.187-58.027-182.187h-107.947l20.907-20.907 128.427-128.853 8.533 8.533 140.8 141.227h-107.52c2.133 44.8 15.36 88.747 38.827 128.427l172.373-144.64c0.427-18.347 7.68-34.987 20.48-47.36 12.8-12.8 30.293-20.053 49.067-20.053 3.413 0 6.827 0 10.24 0.853l172.8-145.067c-51.2-43.52-115.2-67.413-181.76-67.413-75.52 0-146.347 29.44-199.68 82.773-7.68 7.68-18.347 12.373-29.44 12.373s-21.76-4.267-29.44-12.373-12.373-18.347-12.373-29.44 4.267-21.76 12.373-29.44c69.12-69.12 160.853-107.093 258.56-107.093 92.16 0 179.2 34.133 247.040 96.427l130.56-109.653c7.253-6.4 17.067-9.813 26.88-9.813 12.373 0 23.893 5.547 32 14.933 14.933 17.493 12.373 43.947-5.12 58.88z" />
<glyph unicode="&#xe91b;" glyph-name="icon-cadence-speedometer" d="M523.947 517.973c-18.773 0-36.267-7.253-49.067-20.053-27.733-27.733-27.733-72.96 0-100.693 13.227-13.227 31.147-20.907 50.347-20.907s36.693 7.253 50.347 20.907c15.787 15.787 22.613 37.973 19.2 60.587l285.867 285.867c7.68 7.68 12.373 18.347 12.373 29.44s-4.267 21.76-12.373 29.44c-7.68 7.68-18.347 12.373-29.44 12.373s-21.76-4.267-29.44-12.373l-285.867-285.867c-3.84 0.427-7.68 0.853-11.52 0.853zM858.027 595.627l-64.427-63.147c31.573-99.84 6.4-209.067-68.693-284.587-53.333-53.333-124.16-82.773-199.68-82.773s-146.347 29.44-199.68 82.773c-7.68 7.68-18.347 12.373-29.44 12.373s-21.76-4.267-29.44-12.373-12.373-18.347-12.373-29.44 4.267-21.76 12.373-29.44c69.12-69.12 160.853-107.093 258.56-107.093s189.44 37.973 258.56 107.093c104.533 104.533 135.68 260.693 79.787 397.227-1.28 3.413-3.413 6.4-5.547 9.387zM351.147 460.8h-107.52c3.413 70.4 32 136.107 82.347 186.027 53.333 53.333 124.16 82.773 199.253 82.773 29.44 0 58.027-5.973 86.187-14.933l64 63.573c-3.413 2.987-6.827 5.547-11.093 7.253-44.373 18.347-91.307 27.307-139.093 27.307-97.28 0-189.013-37.973-258.56-107.093-65.707-65.707-103.68-152.32-106.667-244.907h-107.947l20.907-20.907 128.427-128.853 8.533 8.533 140.8 141.227z" />
<glyph unicode="&#xe91c;" glyph-name="icon-cadence" d="M784.213 706.56c-69.12 69.12-160.853 107.093-258.56 107.093s-189.44-37.973-258.56-107.093c-65.707-65.707-103.68-152.32-106.667-244.907h-108.373l20.907-20.907 128.427-128.853 8.533 8.533 140.8 141.227h-107.52c3.413 70.4 32 136.107 82.347 186.027 53.333 53.333 124.16 82.773 199.68 82.773s146.347-29.44 199.68-82.773 82.773-124.16 82.773-199.68-29.44-146.347-82.773-199.68c-53.333-53.333-124.16-82.773-199.68-82.773s-146.347 29.44-199.68 82.773c-7.68 7.68-18.347 12.373-29.44 12.373s-21.76-4.267-29.44-12.373c-7.68-7.68-12.373-18.347-12.373-29.44s4.267-21.76 12.373-29.44c69.12-69.12 160.853-107.093 258.56-107.093s189.44 37.973 258.56 107.093c69.12 69.12 107.093 160.853 107.093 258.56s-37.973 189.44-107.093 258.56zM576 397.653c13.227 13.227 20.907 31.147 20.907 50.347s-7.253 36.693-20.907 50.347-31.147 20.907-50.347 20.907-36.693-7.253-50.347-20.907c-27.733-27.733-27.733-72.96 0-100.693 13.653-13.227 31.147-20.907 50.347-20.907s36.693 7.253 50.347 20.907z" />
<glyph unicode="&#xe91d;" glyph-name="icon-calendar" d="M648.96 613.973c23.040 0 41.813 18.773 41.813 41.813v174.933c0 23.040-18.773 41.813-41.813 41.813s-41.813-18.773-41.813-41.813v-174.933c0-23.040 18.773-41.813 41.813-41.813zM807.253 785.067c-23.040 0-41.813-18.773-41.813-41.813s18.773-41.813 41.813-41.813c25.173 0 45.653-20.48 45.653-45.653v-503.040c0-25.173-20.48-45.653-45.653-45.653h-590.507c-25.173 0-45.653 20.48-45.653 45.653v503.040c0 25.173 20.48 45.653 45.653 45.653 23.040 0 41.813 18.773 41.813 41.813s-18.773 41.813-41.813 41.813c-71.253 0-129.28-58.027-129.28-129.28v-503.040c0-71.253 58.027-129.28 129.28-129.28h590.507c71.253 0 129.28 58.027 129.28 129.28v503.040c0 71.253-58.027 129.28-129.28 129.28zM375.040 613.973c23.040 0 41.813 18.773 41.813 41.813v174.933c0 23.040-18.773 41.813-41.813 41.813s-41.813-18.773-41.813-41.813v-174.933c0-23.040 18.773-41.813 41.813-41.813zM431.787 256.853c-21.76 0-39.68 17.92-39.68 39.68h-58.88c0-54.187 43.947-98.56 98.56-98.56s98.56 44.373 98.56 98.56c0 26.88-10.667 51.2-28.587 69.12 17.493 17.92 28.587 42.24 28.587 69.12 0 54.187-43.947 98.56-98.56 98.56s-98.56-44.373-98.56-98.56h58.88c0 21.76 17.92 39.68 39.68 39.68s39.68-17.92 39.68-39.68-17.92-39.68-39.68-39.68v-58.88c21.76 0 39.68-17.92 39.68-39.68s-17.92-39.68-39.68-39.68zM636.16 197.973c16.213 0 29.44 13.227 29.44 29.44v276.053c0 16.213-13.227 29.44-29.44 29.44s-29.44-13.227-29.44-29.44v-276.053c0-16.213 13.227-29.44 29.44-29.44z" />
<glyph unicode="&#xe91e;" glyph-name="icon-calories" d="M849.493 374.613c-24.32 67.413-67.413 130.56-116.907 203.52-61.44 90.453-131.413 192.427-180.053 326.827-5.547 15.36-21.333 25.6-40.533 25.6s-34.56-10.24-40.533-25.6c-48.64-133.973-118.187-236.373-180.053-326.4-49.92-73.387-93.013-136.107-117.333-203.52-42.24-118.187-37.12-214.187 15.787-286.293 83.627-113.92 257.28-122.453 308.48-122.453 7.253 0 11.52 0 12.373 0 2.56 0 6.4 0 12.373 0 51.627 0 225.707 8.96 309.333 122.453 52.907 72.107 58.453 168.533 15.787 286.293zM599.467 88.747c-15.787-21.76-60.587-27.307-81.493-27.307h-3.413s-4.267 0-4.267 0h-3.84c-21.333 0-65.28 5.547-81.493 27.307-12.373 16.64-5.973 44.373 1.28 65.28 7.68 20.907 23.467 44.373 41.813 71.253 13.653 19.627 29.013 42.667 43.947 68.693 14.933-26.027 30.72-49.067 43.52-67.84 18.773-27.733 34.987-51.2 42.24-72.107 7.253-20.48 13.653-48.213 1.28-64.853zM766.72 137.813c-18.347-24.747-45.653-44.8-81.92-59.733 8.533 30.293 5.973 65.28-7.68 103.68-11.093 31.147-30.72 59.733-51.627 90.453-25.6 37.547-53.76 78.933-72.96 132.267-5.547 15.36-21.333 25.6-39.68 25.6s-34.133-10.24-39.68-25.6c-19.2-53.333-47.787-94.72-72.533-131.413-21.333-31.147-40.96-60.16-52.053-91.307-14.080-38.827-16.64-73.813-7.68-104.107-36.267 14.933-63.573 34.987-81.92 59.733-35.413 48.213-37.12 118.613-4.693 208.64 20.48 57.173 60.587 116.053 107.093 184.32 49.493 72.533 104.96 154.027 151.893 253.867 46.507-99.84 101.973-181.333 151.467-253.44 46.933-68.693 87.040-127.573 107.52-184.747 32.427-90.027 30.72-160.427-4.693-208.64z" />
<glyph unicode="&#xe91f;" glyph-name="icon-camara-1" d="M298.24 554.24h61.44v-257.707h48.64v302.933h-110.080v-45.653zM548.267 772.693h-389.973c-71.253 0-129.28-58.027-129.28-129.28v-389.973c0-71.253 58.027-129.28 129.28-129.28h389.973c71.253 0 129.28 58.027 129.28 129.28v389.547c0 71.253-58.027 129.28-129.28 129.28zM594.347 253.013c0-25.173-20.48-46.080-46.080-46.080h-389.973c-25.173 0-46.080 20.48-46.080 46.080v389.973c0 25.173 20.48 46.080 46.080 46.080h389.973c25.173 0 46.080-20.48 46.080-46.080v-389.973zM974.080 624.213c-5.973 3.413-13.227 5.547-20.48 5.547-7.68 0-14.933-2.133-21.76-5.973l-155.307-93.44c-12.373-7.68-20.053-21.333-20.053-35.84v-96c0-14.933 8.107-28.587 20.907-36.267l155.307-90.027c6.4-3.84 13.653-5.547 20.907-5.547s14.507 2.133 20.907 5.547c12.8 7.253 20.907 21.333 20.907 36.267v279.467c0 14.933-8.107 29.013-21.333 36.267z" />
<glyph unicode="&#xe920;" glyph-name="icon-camara-2" d="M394.24 414.293c21.76 22.187 36.693 40.533 44.8 54.613s11.947 29.013 11.947 44.8c0 27.733-9.387 49.493-28.587 65.707s-41.387 23.893-66.56 23.893-46.080-5.12-61.867-15.36c-16.213-10.24-30.72-25.173-43.947-45.227l41.387-23.893c16.64 25.6 37.12 37.973 61.867 37.973 14.080 0 26.027-4.267 34.987-12.8 9.387-8.533 13.653-18.773 13.653-31.147s-4.267-24.32-12.8-35.84c-8.533-11.947-23.467-28.16-43.947-49.067l-91.733-92.587v-43.52h207.36v49.067h-137.387l71.253 72.533zM974.080 624.213c-5.973 3.413-13.227 5.547-20.48 5.547-7.68 0-14.933-2.133-21.76-5.973l-155.307-93.44c-12.373-7.68-20.053-21.333-20.053-35.84v-96c0-14.933 8.107-28.587 20.907-36.267l155.307-90.027c6.4-3.84 13.653-5.547 20.907-5.547s14.507 2.133 20.907 5.547c12.8 7.253 20.907 21.333 20.907 36.267v279.467c0 14.933-8.107 29.013-21.333 36.267zM548.267 772.693h-389.973c-71.253 0-129.28-58.027-129.28-129.28v-389.973c0-71.253 58.027-129.28 129.28-129.28h389.973c71.253 0 129.28 58.027 129.28 129.28v389.547c0 71.253-58.027 129.28-129.28 129.28zM594.347 253.013c0-25.173-20.48-46.080-46.080-46.080h-389.973c-25.173 0-46.080 20.48-46.080 46.080v389.973c0 25.173 20.48 46.080 46.080 46.080h389.973c25.173 0 46.080-20.48 46.080-46.080v-389.973z" />
<glyph unicode="&#xe921;" glyph-name="icon-camara-3" d="M548.267 772.267h-389.973c-71.253 0-129.28-58.027-129.28-129.28v-389.973c0-71.253 58.027-129.28 129.28-129.28h389.973c71.253 0 129.28 58.027 129.28 129.28v389.973c0 71.253-58.027 129.28-129.28 129.28zM594.347 252.587c0-25.173-20.48-46.080-46.080-46.080h-389.973c-25.173 0-46.080 20.48-46.080 46.080v390.4c0 25.173 20.48 46.080 46.080 46.080h389.973c25.173 0 46.080-20.48 46.080-46.080v-389.973zM974.080 624.213c-5.973 3.413-13.227 5.547-20.48 5.547-7.68 0-14.933-2.133-21.76-5.973l-155.307-93.44c-12.373-7.68-20.053-21.333-20.053-35.84v-96c0-14.933 8.107-28.587 20.907-36.267l155.307-90.027c6.4-3.84 13.653-5.547 20.907-5.547s14.507 2.133 20.907 5.547c12.8 7.253 20.907 21.333 20.907 36.267v279.467c0 14.933-8.107 29.013-21.333 36.267zM369.067 479.573l73.387 81.92v40.107h-177.493v-45.653h109.653l-70.4-81.493v-38.827c10.24 2.987 21.333 4.693 32.427 4.693 22.613 0 40.107-4.693 52.907-14.080s19.2-21.76 19.2-37.12-5.547-27.307-17.067-35.413c-11.52-8.107-26.027-12.373-43.52-12.373-27.307 0-53.333 8.533-78.080 26.027l-21.76-41.387c31.573-20.907 63.573-31.573 96.853-31.573s59.733 8.96 81.067 26.453c20.907 17.493 31.573 41.813 31.573 72.96 0 23.040-7.68 43.093-23.467 59.733s-37.12 25.6-64.853 26.453z" />
<glyph unicode="&#xe922;" glyph-name="icon-camara-4" d="M548.267 772.267h-389.973c-71.253 0-129.28-58.027-129.28-129.28v-389.973c0-71.253 58.027-129.28 129.28-129.28h389.973c71.253 0 129.28 58.027 129.28 129.28v389.973c0 71.253-58.027 129.28-129.28 129.28zM594.347 252.587c0-25.173-20.48-46.080-46.080-46.080h-389.973c-25.173 0-46.080 20.48-46.080 46.080v390.4c0 25.173 20.48 46.080 46.080 46.080h389.973c25.173 0 46.080-20.48 46.080-46.080v-389.973zM974.080 624.213c-5.973 3.413-13.227 5.547-20.48 5.547-7.68 0-14.933-2.133-21.76-5.973l-155.307-93.44c-12.373-7.68-20.053-21.333-20.053-35.84v-96c0-14.933 8.107-28.587 20.907-36.267l155.307-90.027c6.4-3.84 13.653-5.547 20.907-5.547s14.507 2.133 20.907 5.547c12.8 7.253 20.907 21.333 20.907 36.267v279.467c0 14.933-8.107 29.013-21.333 36.267zM421.973 474.027h-46.933v-53.76h-70.4l106.24 174.933h-54.187l-107.947-176.213v-43.52h126.293v-73.813h46.933v73.813h35.413v44.8h-35.413v53.76z" />
<glyph unicode="&#xe923;" glyph-name="icon-camara-back-off" d="M211.627 569.173v113.92h368.64c23.040 0 41.813 18.773 41.813 41.813s-18.773 41.813-41.813 41.813h-368.64v113.92l-19.627-14.507-188.16-141.227 13.227-9.813 174.933-130.987 19.627-14.933zM115.2 305.92v136.107c0 23.040-18.773 41.813-41.813 41.813s-41.813-18.773-41.813-41.813v-136.107c0-23.040 18.773-41.813 41.813-41.813s41.813 18.773 41.813 41.813zM977.067 618.24c-5.973 3.413-13.227 5.547-20.48 5.547-7.68 0-14.933-2.133-21.76-5.973l-155.307-93.44c-12.373-7.68-20.053-21.333-20.053-35.84v-96c0-14.933 8.107-28.587 20.907-36.267l155.307-90.027c6.4-3.84 13.653-5.547 20.907-5.547s14.507 2.133 20.907 5.547c12.8 7.253 20.907 21.333 20.907 36.267v279.893c0 14.933-8.107 29.013-21.333 36.267zM971.093 786.347c0.853 11.093-2.56 21.76-9.813 30.293-8.107 9.387-19.627 14.933-32 14.933-9.813 0-19.2-3.413-26.88-9.813l-828.587-695.467c-8.533-7.253-13.653-17.067-14.933-28.16-0.853-11.093 2.56-21.76 9.813-30.293 7.68-9.387 19.627-14.933 32-14.933 9.813 0 19.2 3.413 26.88 9.813l66.133 55.467h357.547c71.253 0 129.28 58.027 129.28 129.28v279.467l275.627 231.253c8.533 7.253 13.653 17.067 14.933 28.16zM596.907 247.040c0-25.173-20.48-46.080-46.080-46.080h-258.133l304.64 255.573v-209.493z" />
<glyph unicode="&#xe924;" glyph-name="icon-camara-back" d="M977.493 609.28c-5.973 3.413-13.227 5.547-20.48 5.547-7.68 0-14.933-2.133-21.333-5.973l-155.307-93.44c-12.373-7.68-20.053-21.333-20.053-35.84v-96c0-14.933 8.107-28.587 20.907-36.267l155.307-90.027c6.4-3.84 13.653-5.547 20.907-5.547s14.507 2.133 20.907 5.547c12.8 7.253 20.907 21.333 20.907 36.267v279.893c0 14.933-8.107 29.013-21.333 36.267zM531.627 757.76h-320v113.92l-19.627-14.507-188.16-141.227 13.227-9.813 174.933-130.987 19.627-14.933v113.92h319.573c36.267 0 66.133-29.44 66.133-66.133v-350.293c0-36.267-29.44-66.133-66.133-66.133h-349.867c-36.267 0-66.133 29.44-66.133 66.133v174.933c0 23.040-18.773 41.813-41.813 41.813s-41.813-18.773-41.813-41.813v-174.933c0-82.347 66.987-149.333 149.333-149.333h350.72c82.347 0 149.333 66.987 149.333 149.333v350.72c0 82.347-66.987 149.333-149.333 149.333z" />
<glyph unicode="&#xe925;" glyph-name="icon-camera-off" d="M968.107 792.32c0.853 11.093-2.56 21.76-9.813 30.293-8.107 9.387-19.627 14.933-32 14.933-9.813 0-19.2-3.413-26.88-9.813l-829.013-695.893c-8.533-7.253-13.653-17.067-14.933-28.16-0.853-11.093 2.56-21.76 9.813-30.293 7.68-9.387 19.627-14.933 32-14.933 9.813 0 19.2 3.413 26.88 9.813l66.133 55.467h357.973c71.253 0 129.28 58.027 129.28 129.28v279.467l275.627 231.253c8.533 7.253 13.653 17.067 14.933 28.16zM593.92 253.013c0-25.6-20.48-46.080-46.080-46.080h-258.133l304.64 255.573v-209.493zM111.787 311.893v331.093c0 25.6 20.48 46.080 46.080 46.080h394.24c23.040 0 41.813 18.773 41.813 41.813s-18.773 41.813-41.813 41.813h-393.813c-71.253 0-129.28-58.027-129.28-129.28v-331.093c0-23.040 18.773-41.813 41.813-41.813s41.813 18.773 41.813 41.813zM974.080 624.213c-5.973 3.413-13.227 5.547-20.48 5.547-7.68 0-14.933-2.133-21.76-5.973l-155.307-93.44c-12.373-7.68-20.053-21.333-20.053-35.84v-96c0-14.933 8.107-28.587 20.907-36.267l155.307-90.027c6.4-3.84 13.653-5.547 20.907-5.547s14.507 2.133 20.907 5.547c12.8 7.253 20.907 21.333 20.907 36.267v279.893c0 14.933-8.107 29.013-21.333 36.267z" />
<glyph unicode="&#xe926;" glyph-name="icon-camera" d="M554.24 772.267h-389.973c-71.253 0-129.28-58.027-129.28-129.28v-389.973c0-71.253 58.027-129.28 129.28-129.28h389.973c71.253 0 129.28 58.027 129.28 129.28v389.973c0 71.253-58.027 129.28-129.28 129.28zM600.32 252.587c0-25.173-20.48-46.080-46.080-46.080h-389.973c-25.173 0-46.080 20.48-46.080 46.080v390.4c0 25.173 20.48 46.080 46.080 46.080h389.973c25.173 0 46.080-20.48 46.080-46.080v-389.973zM974.080 613.12c-9.387 5.12-20.48 5.12-29.867 0l-155.307-93.44c-8.96-5.12-14.080-14.933-14.080-25.173v-96c0-10.667 5.547-20.053 14.507-25.6l155.307-90.027c4.693-2.56 9.813-3.84 14.933-3.84s10.24 1.28 14.507 3.84c8.96 5.12 14.933 14.933 14.933 25.6v279.893c0 10.667-5.547 20.48-14.933 25.6z" />
<glyph unicode="&#xe927;" glyph-name="icon-cart-empty" d="M784.213 347.733c17.92 2.133 32 15.787 35.413 33.28l59.307 297.813s0 3.413 0 5.547c0 23.040-18.773 41.813-41.813 41.813-20.48 0-37.547-14.507-40.96-34.56l-9.813-49.92-43.093-215.040-388.267-50.347-95.147 404.907c-4.267 18.773-21.333 32-40.533 32h-33.28c-23.040 0-41.813-18.773-41.813-41.813s18.773-41.813 41.813-41.813v0l95.147-404.907v-113.067c0-23.040 18.773-41.813 41.813-41.813h4.267c-1.707-5.547-2.56-11.52-2.56-17.067 0-39.253 32-71.253 71.253-71.253s71.253 32 71.253 71.253c0 5.547-0.853 11.52-2.56 17.067h215.893c-1.707-5.547-2.56-11.52-2.56-17.067 0-39.253 32-71.253 71.253-71.253s71.253 32 71.253 71.253c0 5.547-0.853 11.52-2.56 17.067h15.787c23.040 0 41.813 18.773 41.813 41.813s-18.773 41.813-41.813 41.813h-468.48v39.253l418.987 54.187z" />
<glyph unicode="&#xe928;" glyph-name="icon-cart-full" d="M456.533 584.107h58.88v-58.88c0-16.213 13.227-29.44 29.44-29.44s29.44 13.227 29.44 29.44v58.88h58.88c16.213 0 29.44 13.227 29.44 29.44s-13.227 29.44-29.44 29.44h-58.88v58.88c0 16.213-13.227 29.44-29.44 29.44s-29.44-13.227-29.44-29.44v-58.88h-58.88c-16.213 0-29.44-13.227-29.44-29.44s13.227-29.44 29.44-29.44zM784.64 347.733c17.92 2.133 32 15.787 35.413 33.28l59.307 297.813s0 3.413 0 5.547c0 23.040-18.773 41.813-41.813 41.813-20.48 0-37.547-14.507-40.96-34.56l-9.813-49.92-43.093-215.040-388.267-50.347-95.147 404.907c-4.267 18.773-21.333 32-40.533 32h-33.28c-23.040 0-41.813-18.773-41.813-41.813s18.773-41.813 41.813-41.813v0l95.147-404.907v-113.067c0-23.040 18.773-41.813 41.813-41.813h4.267c-1.707-5.547-2.56-11.52-2.56-17.067 0-39.253 32-71.253 71.253-71.253s71.253 32 71.253 71.253c0 5.547-0.853 11.52-2.56 17.067h215.893c-1.707-5.547-2.56-11.52-2.56-17.067 0-39.253 32-71.253 71.253-71.253s71.253 32 71.253 71.253c0 5.547-0.853 11.52-2.56 17.067h15.787c23.040 0 41.813 18.773 41.813 41.813s-18.773 41.813-41.813 41.813h-468.907v39.253l418.987 54.187z" />
<glyph unicode="&#xe929;" glyph-name="icon-center" d="M483.84 595.2c7.68-7.68 18.347-11.947 29.44-11.947v0c11.52 0 21.76 4.693 29.44 12.373l145.493 147.2c7.68 8.107 11.947 18.347 11.947 29.44s-4.267 21.76-12.373 29.44c-7.68 7.68-18.347 11.947-29.44 11.947s-21.76-4.267-29.867-12.373l-116.053-117.76-118.187 116.907c-7.68 7.68-18.347 11.947-29.44 11.947s-21.76-4.267-29.867-12.373c-7.68-8.107-11.947-18.347-11.947-29.44s4.267-21.76 12.373-29.44l148.053-146.347zM540.16 301.227c-8.107 8.107-16.213 11.52-29.013 11.947v0s0 0 0 0c-11.093 0-21.76-4.693-29.44-12.373l-145.493-147.2c-7.68-8.107-11.947-18.347-11.947-29.44s4.267-21.76 12.373-29.44c7.68-7.68 18.347-11.947 29.44-11.947s21.76 4.267 29.44 12.373l116.053 117.76 118.187-116.907c7.68-7.68 18.347-11.947 29.44-11.947s21.76 4.267 29.867 12.373c7.68 8.107 11.947 18.347 11.947 29.44s-4.267 21.76-12.373 29.44l-148.053 146.347zM953.6 489.813h-883.2c-23.040 0-41.813-18.773-41.813-41.813s18.773-41.813 41.813-41.813h883.2c23.040 0 41.813 18.773 41.813 41.813s-18.773 41.813-41.813 41.813z" />
<glyph unicode="&#xe92a;" glyph-name="icon-checked-circle" d="M701.013 651.52c-6.827 4.267-14.507 6.827-22.613 6.827-14.080 0-27.307-6.827-34.987-18.773l-222.72-339.2-93.013 125.44c-7.68 10.667-20.48 17.067-33.707 17.067-8.96 0-17.493-2.987-24.747-8.107-8.96-6.4-14.507-16.213-16.213-27.307s1.28-22.187 7.68-31.147l128.853-173.653c7.68-10.667 20.48-17.067 33.28-17.067 14.933 0 27.307 7.253 34.987 18.773l255.573 389.12c12.8 19.2 7.253 45.227-11.947 57.6zM512 931.413c-266.667 0-483.413-216.747-483.413-483.413s216.747-483.413 483.413-483.413 483.413 216.747 483.413 483.413-216.747 483.413-483.413 483.413zM512 48.213c-220.587 0-399.787 179.2-399.787 399.787s179.2 399.787 399.787 399.787 399.787-179.2 399.787-399.787-179.2-399.787-399.787-399.787z" />
<glyph unicode="&#xe92b;" glyph-name="icon-checked" d="M800.853 726.613c-6.827 4.267-14.507 6.827-22.613 6.827-14.080 0-27.307-6.827-34.987-18.773l-320.853-438.613-142.507 176.213c-7.68 10.24-20.053 16.64-33.28 16.64-8.96 0-17.493-2.987-24.747-8.107-8.96-6.4-14.507-16.213-16.213-27.307s1.28-22.187 7.68-31.147l177.92-223.147c7.68-10.24 20.053-16.64 33.28-16.64 14.933 0 27.307 7.253 34.987 18.773l352.853 486.827c12.8 19.627 7.68 45.653-11.52 58.027z" />
<glyph unicode="&#xe92c;" glyph-name="icon-chevron-left-circle" d="M467.627 446.72l176.213 177.92c7.68 8.107 11.947 18.347 11.947 29.44s-4.267 21.76-12.373 29.44c-7.68 7.68-18.347 11.947-29.44 11.947s-21.76-4.267-29.44-12.373l-205.227-207.787c-7.68-8.107-11.947-18.347-11.947-29.44s4.267-21.76 12.373-29.44l206.507-204.373c8.107-7.68 18.347-11.947 29.44-11.947s21.76 4.267 29.867 12.373c7.68 8.107 11.947 18.347 11.947 29.44s-4.267 21.76-12.373 29.44l-177.067 174.933zM512 931.413c-266.667 0-483.413-216.747-483.413-483.413s216.747-483.413 483.413-483.413 483.413 216.747 483.413 483.413-216.747 483.413-483.413 483.413zM512 48.213c-220.587 0-399.787 179.2-399.787 399.787s179.2 399.787 399.787 399.787 399.787-179.2 399.787-399.787-179.2-399.787-399.787-399.787z" />
<glyph unicode="&#xe92d;" glyph-name="icon-chevron-left" d="M659.627 241.92l-206.507 204.373 205.653 207.787c7.68 8.107 11.947 18.347 11.947 29.44s-4.267 21.76-12.373 29.44c-7.68 7.68-18.347 11.947-29.44 11.947s-21.76-4.267-29.867-12.373l-234.667-237.653c-7.68-8.107-11.947-18.347-11.947-29.44s4.267-21.76 12.373-29.44l236.373-233.387c7.68-7.68 18.347-11.947 29.44-11.947s21.76 4.267 29.867 12.373c7.68 8.107 11.947 18.347 11.947 29.44s-4.267 21.76-12.373 29.44z" />
<glyph unicode="&#xe92e;" glyph-name="icon-chevron-right-circle" d="M487.253 683.52c-7.68 7.68-18.347 11.947-29.44 11.947s-21.76-4.267-29.44-12.373c-7.68-7.68-11.947-18.347-11.947-29.44s4.267-21.76 12.373-29.44l177.067-174.933-176.213-177.92c-7.68-8.107-11.947-18.347-11.947-29.44s4.267-21.76 12.373-29.44c7.68-7.68 18.347-11.947 29.44-11.947s21.76 4.267 29.867 12.373l205.227 207.787c7.68 8.107 11.947 18.347 11.947 29.44s-4.267 21.76-12.373 29.44l-206.507 204.373zM512 930.987c-266.667 0.427-483.413-216.32-483.413-482.987s216.747-483.413 483.413-483.413 483.413 216.747 483.413 483.413-216.747 483.413-483.413 483.413zM512 47.787c-220.587 0-399.787 179.2-399.787 399.787s179.2 400.213 399.787 400.213 399.787-179.2 399.787-399.787-179.2-399.787-399.787-399.787z" />
<glyph unicode="&#xe92f;" glyph-name="icon-chevron-right" d="M659.627 479.573l-236.373 233.387c-7.68 7.68-18.347 11.947-29.44 11.947s-21.76-4.267-29.867-12.373c-7.68-8.107-11.947-18.347-11.947-29.44s4.267-21.76 12.373-29.44l206.507-204.373-205.653-207.787c-7.68-8.107-11.947-18.347-11.947-29.44s4.267-21.76 12.373-29.44c7.68-7.68 18.347-11.947 29.44-11.947s21.76 4.267 29.867 12.373l234.667 237.653c7.68 8.107 11.947 18.347 11.947 29.44s-4.267 21.76-12.373 29.44z" />
<glyph unicode="&#xe930;" glyph-name="icon-chrono" d="M430.080 788.907h159.147c23.040 0 41.813 18.773 41.813 41.813s-18.773 41.813-41.813 41.813h-159.147c-23.040 0-41.813-18.773-41.813-41.813s18.773-41.813 41.813-41.813zM875.093 718.933c16.213 16.213 16.213 42.667 0 58.88-7.68 7.68-18.347 12.373-29.44 12.373s-21.76-4.267-29.44-12.373l-85.76-85.76c-64.853 48.64-141.227 74.24-221.867 74.24-204.8 0-371.627-166.4-371.627-371.2s166.827-371.627 371.627-371.627 371.627 166.827 371.627 371.627c0 87.893-31.573 172.8-88.747 239.787l84.053 84.053zM796.16 394.667c0-158.72-129.28-288-288-288s-288 129.28-288 288 129.28 288 288 288 288-129.28 288-288zM551.253 410.453v167.253c0 23.040-18.773 41.813-41.813 41.813s-41.813-18.773-41.813-41.813v-184.747c0-11.093 4.267-21.76 12.373-29.44l130.56-130.56c7.68-7.68 18.347-12.373 29.44-12.373s21.76 4.267 29.44 12.373c16.213 16.213 16.213 42.667 0 58.88l-118.187 118.187z" />
<glyph unicode="&#xe931;" glyph-name="icon-clone" d="M517.12 164.267c-7.68-8.107-11.947-18.347-11.947-29.44s4.267-21.76 12.373-29.44c8.107-7.68 18.347-11.947 29.44-11.947s21.76 4.267 29.44 12.373l107.093 107.52c7.68 8.107 12.373 18.347 11.947 29.44 0 11.093-4.267 21.76-12.373 29.44l-107.093 106.24c-8.107 7.68-18.347 11.947-29.44 11.947s-21.76-4.267-29.44-12.373c-7.68-7.68-11.947-18.347-11.947-29.44s4.267-21.76 12.373-29.44l35.84-35.84h-323.413v564.48h387.413v-103.68h83.2v145.493c0 23.040-18.773 41.813-41.813 41.813h-470.613c-23.040 0-41.813-18.773-41.813-41.813v-647.68c0-23.040 18.773-41.813 41.813-41.813h364.8l-35.84-35.84zM835.84 695.893h-471.040c-23.040 0-41.813-18.773-41.813-41.813v-323.84h83.2v282.027h387.84v-564.48h-387.413v79.36s0 25.6 0 25.6v0s-83.627 0-83.627 0v0-146.773c0-23.040 18.773-41.813 41.813-41.813h471.040c23.040 0 41.813 18.773 41.813 41.813v648.107c0 23.040-18.773 41.813-41.813 41.813z" />
<glyph unicode="&#xe932;" glyph-name="icon-close-circle" d="M512 931.413c-266.667 0-483.413-216.747-483.413-483.413s216.747-483.413 483.413-483.413 483.413 216.747 483.413 483.413-216.747 483.413-483.413 483.413zM512 48.213c-220.587 0-399.787 179.2-399.787 399.787s179.2 399.787 399.787 399.787 399.787-179.2 399.787-399.787-179.2-399.787-399.787-399.787zM715.52 610.133c0 11.093-4.267 21.76-12.373 29.44s-18.347 12.373-29.44 12.373-21.76-4.267-29.44-12.373l-132.267-132.267-132.267 132.267c-7.68 7.68-18.347 12.373-29.44 12.373s-21.76-4.267-29.44-12.373c-7.68-7.68-12.373-18.347-12.373-29.44s4.267-21.76 12.373-29.44l132.267-132.267-132.267-132.267c-7.68-7.68-12.373-18.347-12.373-29.44s4.267-21.76 12.373-29.44c7.68-7.68 18.347-12.373 29.44-12.373s21.76 4.267 29.44 12.373l132.267 132.267 132.267-132.267c7.68-7.68 18.347-12.373 29.44-12.373s21.76 4.267 29.44 12.373c7.68 7.68 12.373 18.347 12.373 29.44s-4.267 21.76-12.373 29.44l-132.267 132.267 132.267 132.267c7.68 7.68 12.373 18.347 12.373 29.44z" />
<glyph unicode="&#xe933;" glyph-name="icon-close" d="M801.707 217.6l-230.4 230.4 230.4 230.4c16.213 16.213 16.213 42.667 0 58.88-7.68 7.68-18.347 12.373-29.44 12.373s-21.76-4.267-29.44-12.373l-230.4-230.4-230.827 230.827c-7.68 7.68-18.347 12.373-29.44 12.373s-21.76-4.267-29.44-12.373c-16.213-16.213-16.213-42.667 0-58.88l230.4-230.4-230.4-230.4c-7.68-7.68-12.373-18.347-12.373-29.44s4.267-21.76 12.373-29.44c7.68-7.68 18.347-12.373 29.44-12.373s21.76 4.267 29.44 12.373l230.4 230.4 230.4-230.4c7.68-7.68 18.347-12.373 29.44-12.373s21.76 4.267 29.44 12.373 12.373 18.347 12.373 29.44-4.267 21.76-12.373 29.44z" />
<glyph unicode="&#xe934;" glyph-name="icon-cloudy" d="M867.413 406.187c1.707 9.813 2.56 19.627 2.56 29.44 0 88.747-72.107 160.853-160.427 160.853-11.52 0-23.040-1.28-34.133-3.84-4.693 106.24-92.16 191.147-199.253 191.147s-199.253-89.6-199.253-199.68c0-7.68 0.427-15.787 1.28-23.467-8.533 0.853-17.067 1.707-26.027 1.707-122.88 0-223.147-100.267-223.147-223.573s100.267-224 223.147-224l596.053-2.987c81.493 0 147.627 66.133 147.627 147.627 0 75.52-55.040 136.96-128 146.347zM848.213 195.413l-596.053 2.987c-77.227 0-139.947 63.147-139.947 140.373s62.72 140.373 139.947 140.373c25.6 0 50.773-6.827 72.533-20.053 5.973-3.413 12.373-5.547 18.773-5.547 11.093 0 22.187 5.12 31.147 14.080 12.8 13.227 14.507 37.12 3.84 53.76-11.947 18.773-18.347 40.533-18.347 62.72 0 64.427 52.053 116.48 116.053 116.48s116.053-52.053 116.053-116.48c0-19.627-5.12-39.253-14.507-56.32-10.24-18.347-5.12-41.387 11.947-53.76 7.253-5.12 15.787-8.107 24.747-8.107 11.52 0 22.613 4.693 30.293 12.8l5.12 5.547c14.933 18.347 36.693 29.013 60.16 29.013 42.667 0 77.227-34.987 77.227-77.653 0-22.187-9.387-43.093-25.6-57.6-15.787-14.507-18.347-38.4-5.973-55.467 7.68-10.667 20.48-17.067 33.707-17.067 7.253 0 14.507 2.133 20.907 5.547 13.653 8.107 30.293 12.8 37.973 12.8 35.413 0 64-29.013 64-64.427s-28.587-64.427-64-64.427z" />
<glyph unicode="&#xe935;" glyph-name="icon-connection-off" d="M911.787 448c0-57.173-11.947-112.64-35.413-164.693-9.387-20.907 0-45.653 20.907-55.040 5.547-2.56 11.093-3.84 17.067-3.84 16.213 0 31.147 9.813 37.973 24.32 28.16 62.72 42.667 129.707 42.667 198.827 0 129.28-50.347 250.88-141.653 342.187-7.68 7.68-18.347 12.373-29.44 12.373s-21.76-4.267-29.44-12.373c-16.213-16.213-16.213-42.667 0-58.88 75.52-75.52 117.333-176.213 117.333-282.88zM705.28 448c0-10.24-0.853-20.907-2.56-31.573-3.84-22.613 11.52-43.947 34.56-47.787 2.133 0 4.693-0.427 6.827-0.427 20.48 0 37.973 14.507 40.96 34.987 2.56 14.933 3.84 29.867 3.84 45.227 0 73.813-29.013 143.36-81.067 195.84-7.68 7.68-18.347 12.373-29.44 12.373s-21.76-4.267-29.44-12.373-12.373-18.347-12.373-29.44 4.267-21.76 12.373-29.44c36.693-36.693 56.747-85.333 56.747-136.96zM582.4 443.307s0.427 2.987 0.427 4.693c0 39.253-32 71.253-71.253 71.253-6.4 0-11.947-1.28-17.067-2.56l-134.827 113.067s-1.28 1.28-1.28 1.28l-1.28 1.28s-156.587 131.413-156.587 131.413c0 0 0 0 0 0s0 0 0 0l-76.373 64c-7.253 6.4-17.067 9.813-26.88 9.813-12.373 0-23.893-5.547-32-14.933-7.253-8.533-10.667-19.2-9.813-30.293s6.4-21.333 14.933-28.16l45.653-38.4c-56.32-81.067-87.467-178.347-87.467-277.76 0-128.853 50.347-250.453 141.653-341.76 7.68-7.68 18.347-12.373 29.44-12.373s21.76 4.267 29.44 12.373c7.68 7.68 12.373 18.347 12.373 29.44s-4.267 21.76-12.373 29.44c-75.52 75.52-116.907 175.787-116.907 282.88 0 79.787 24.32 157.867 68.693 223.573l95.573-80.213c-26.88-43.947-40.96-93.44-40.96-143.36 0-73.813 28.587-143.36 81.067-195.84 7.68-7.68 18.347-12.373 29.44-12.373s21.76 4.267 29.44 12.373c16.213 16.213 16.213 42.667 0 58.88-36.693 36.693-56.747 84.907-56.747 136.533 0 30.72 7.68 61.44 22.187 89.173l100.267-84.053s-0.427-3.413-0.427-5.12c0-39.253 32-71.253 71.253-71.253 6.4 0 11.947 1.28 17.067 2.56l370.773-311.040c7.253-6.4 17.067-9.813 26.88-9.813 12.373 0 23.893 5.547 32 14.933 7.253 8.533 10.667 19.2 9.387 30.293-0.853 11.093-6.4 21.333-14.933 28.16l-370.773 311.040z" />
<glyph unicode="&#xe936;" glyph-name="icon-connection" d="M512 519.253c-39.253 0-71.253-32-71.253-71.253s32-71.253 71.253-71.253 71.253 32 71.253 71.253-32 71.253-71.253 71.253zM112.213 448c0 106.667 41.387 207.36 116.907 282.88 16.213 16.213 16.213 42.667 0 58.88-7.68 7.68-18.347 12.373-29.44 12.373s-21.76-4.267-29.44-12.373c-91.307-91.307-141.653-212.907-141.653-341.76s50.347-250.453 141.653-341.76c7.68-7.68 18.347-12.373 29.44-12.373s21.76 4.267 29.44 12.373c16.213 16.213 16.213 42.667 0 58.88-75.52 75.52-117.333 175.787-117.333 282.88zM318.72 448c0 51.627 20.053 100.267 56.747 136.533 16.213 16.213 16.213 42.667 0 58.88-7.68 7.68-18.347 12.373-29.44 12.373s-21.76-4.267-29.44-12.373c-52.053-52.053-81.067-121.6-81.067-195.84s29.013-143.36 81.067-195.84c7.68-7.68 18.347-12.373 29.44-12.373s21.76 4.267 29.44 12.373c16.213 16.213 16.213 42.667 0 58.88-36.693 36.693-56.747 84.907-56.747 136.533zM853.333 789.76c-7.68 7.68-18.347 12.373-29.44 12.373s-21.76-4.267-29.44-12.373c-16.213-16.213-16.213-42.667 0-58.88 75.52-75.52 117.333-176.213 117.333-282.88s-41.387-206.933-116.907-282.88c-16.213-16.213-16.213-42.667 0-58.88 7.68-7.68 18.347-12.373 29.44-12.373s21.76 4.267 29.44 12.373c91.307 91.307 141.653 212.48 141.653 341.76s-50.347 250.88-141.653 342.187zM707.413 643.413c-7.68 7.68-18.347 12.373-29.44 12.373s-21.76-4.267-29.44-12.373-12.373-18.347-12.373-29.44 4.267-21.76 12.373-29.44c36.693-36.693 56.747-85.333 56.747-136.96s-20.053-100.267-56.747-136.533c-16.213-16.213-16.213-42.667 0-58.88 7.68-7.68 18.347-12.373 29.44-12.373s21.76 4.267 29.44 12.373c52.053 52.48 81.067 121.6 81.067 195.84s-29.013 143.36-81.067 195.84z" />
<glyph unicode="&#xe937;" glyph-name="icon-connection-2-off" d="M541.44 586.24c43.947 73.813 66.987 158.293 66.987 244.48 0 23.040-18.773 41.813-41.813 41.813s-41.813-18.773-41.813-41.813c0-69.973-18.773-138.667-53.76-198.827l64-53.333c2.133 2.133 4.267 4.693 5.973 7.68zM894.72 460.8c23.040 0 41.813 18.773 41.813 41.813s-18.773 41.813-41.813 41.813c-77.653 0-154.88-19.2-223.573-55.040-5.547-2.987-9.813-6.827-13.653-11.52l66.987-55.467c52.907 25.173 110.933 38.827 169.813 38.827zM894.72 380.16c-23.467 0-46.933-2.56-69.547-7.68-9.387-2.133-17.067-7.68-22.613-14.933l74.667-61.867c5.973 0.427 11.52 0.853 17.493 0.853 23.040 0 41.813 18.773 41.813 41.813s-18.773 41.813-41.813 41.813zM953.6 131.84l-75.947 64-753.493 631.893c-7.253 6.4-17.067 9.813-26.88 9.813-12.373 0-23.893-5.547-32-14.933-7.253-8.533-10.667-19.2-9.813-30.293s6.4-21.333 14.933-28.587l23.893-20.053c-4.693-6.827-6.827-14.507-6.827-22.613 0-23.040 18.773-41.813 41.813-41.813 11.52 0 23.040 1.707 35.84 5.12l70.4-59.307c-33.28-17.493-69.547-26.453-106.24-26.453-23.040 0-41.813-18.773-41.813-41.813s18.773-41.813 41.813-41.813c61.013 0 120.747 18.347 173.653 53.333l64.427-54.187c-68.267-51.627-152.32-79.787-238.080-79.787-23.040 0-41.813-18.773-41.813-41.813s18.773-41.813 41.813-41.813c110.507 0 217.6 38.4 303.36 108.8l98.987-83.2c-75.093-87.040-116.053-197.12-116.053-311.893 0-23.040 18.773-41.813 41.813-41.813s41.813 18.773 41.813 41.813c0 95.147 34.133 186.453 96.427 258.133l61.44-51.627c-49.92-57.173-77.227-130.133-77.227-206.507 0-23.040 18.773-41.813 41.813-41.813s41.813 18.773 41.813 41.813c0 55.467 20.907 109.227 58.88 152.32l61.013-51.2c-25.173-27.733-39.253-64-39.253-100.693 0-23.040 18.773-41.813 41.813-41.813s41.813 18.773 41.813 41.813c0 17.92 7.253 34.56 20.053 47.36l52.907-44.373c7.253-6.4 17.067-9.813 26.88-9.813 12.373 0 23.893 5.547 32 14.933 7.253 8.533 10.667 19.2 9.387 30.293-0.853 11.093-6.4 21.333-14.933 28.16zM413.867 695.040c20.48 42.667 30.72 88.32 30.72 135.68 0 23.040-18.773 41.813-41.813 41.813s-41.813-18.773-41.813-41.813c0-32-6.827-62.72-19.2-91.733l65.28-54.187c2.56 2.987 4.693 6.4 6.827 9.813z" />
<glyph unicode="&#xe938;" glyph-name="icon-connection-2" d="M608.427 830.72c0 23.040-18.773 41.813-41.813 41.813s-41.813-18.773-41.813-41.813c0-218.027-177.493-395.52-395.52-395.52-23.040 0-41.813-18.773-41.813-41.813s18.773-41.813 41.813-41.813c264.107 0 479.147 215.040 479.147 479.147zM129.28 515.84c173.653 0 314.88 141.227 314.88 314.88 0 23.040-18.773 41.813-41.813 41.813s-41.813-18.773-41.813-41.813c0-127.573-104.107-231.68-231.68-231.68-23.040 0-41.813-18.773-41.813-41.813s18.773-41.813 41.813-41.813zM129.28 679.68c83.2 0 151.040 67.84 151.040 151.040 0 23.040-18.773 41.813-41.813 41.813s-41.813-18.773-41.813-41.813c0-37.12-30.293-67.84-67.84-67.84-23.040 0-41.813-18.773-41.813-41.813s18.773-41.813 41.813-41.813zM894.72 460.8c23.040 0 41.813 18.773 41.813 41.813s-18.773 41.813-41.813 41.813c-264.107 0-479.147-215.040-479.147-479.147 0-23.040 18.773-41.813 41.813-41.813s41.813 18.773 41.813 41.813c0 218.027 177.493 395.52 395.52 395.52zM894.72 380.16c-173.653 0-314.88-141.227-314.88-314.88 0-23.040 18.773-41.813 41.813-41.813s41.813 18.773 41.813 41.813c0 127.573 104.107 231.68 231.68 231.68 23.040 0 41.813 18.773 41.813 41.813s-18.773 41.813-41.813 41.813zM894.72 216.32c-83.2 0-151.040-67.84-151.040-151.040 0-23.040 18.773-41.813 41.813-41.813s41.813 18.773 41.813 41.813c0 37.12 30.293 67.84 67.84 67.84 23.040 0 41.813 18.773 41.813 41.813s-18.773 41.813-41.813 41.813z" />
<glyph unicode="&#xe939;" glyph-name="icon-contract-screen" d="M428.373 405.76h-299.093c-23.040 0-41.813-18.773-41.813-41.813s18.773-41.813 41.813-41.813h257.28v-257.28c0-23.040 18.773-41.813 41.813-41.813s41.813 18.773 41.813 41.813v299.093c0 23.040-18.773 41.813-41.813 41.813zM596.053 489.813h299.093c23.040 0 41.813 18.773 41.813 41.813s-18.773 41.813-41.813 41.813h-257.28v257.28c0 23.040-18.773 41.813-41.813 41.813s-41.813-18.773-41.813-41.813v-299.093c0-23.040 18.773-41.813 41.813-41.813zM428.373 872.96c-23.040 0-41.813-18.773-41.813-41.813v-257.28h-257.28c-23.040 0-41.813-18.773-41.813-41.813s18.773-41.813 41.813-41.813h299.093c23.040 0 41.813 18.773 41.813 41.813v299.093c0 23.040-18.773 41.813-41.813 41.813zM894.72 405.76h-299.093c-23.040 0-41.813-18.773-41.813-41.813v-299.093c0-23.040 18.773-41.813 41.813-41.813s41.813 18.773 41.813 41.813v257.28h257.28c23.040 0 41.813 18.773 41.813 41.813s-18.773 41.813-41.813 41.813z" />
<glyph unicode="&#xe93a;" glyph-name="icon-coupon" d="M983.040 604.16l-90.027 90.027c-7.68 7.68-18.347 11.947-29.44 11.947s-21.76-4.267-29.44-11.947c-9.813-9.813-23.467-15.36-37.973-15.36s-28.587 5.547-38.4 15.36c-10.24 10.24-15.787 23.893-15.787 37.973s5.547 28.16 15.787 37.973c7.68 7.68 12.373 18.347 12.373 29.44s-4.267 21.76-12.373 29.44l-89.6 90.027c-7.68 7.68-18.347 12.373-29.44 12.373s-21.76-4.267-29.44-12.373l-568.32-568.32c-7.68-7.68-12.373-18.347-12.373-29.44s4.267-21.76 12.373-29.44l90.027-90.027c7.68-7.68 18.347-12.373 29.44-12.373s21.76 4.267 29.44 12.373c9.813 9.813 23.467 15.36 38.4 15.36s28.587-5.547 38.4-15.36c10.24-10.24 15.787-23.893 15.787-37.973s-5.547-28.16-15.787-37.973c-7.68-7.68-12.373-18.347-12.373-29.44s4.267-21.76 12.373-29.44l90.027-90.027c7.68-7.68 18.347-12.373 29.44-12.373s21.76 4.267 29.44 12.373l568.32 568.32c7.68 7.68 12.373 18.347 12.373 29.44s-4.267 21.76-12.373 29.44zM385.28 65.28l-35.413 35.413c10.24 19.2 15.36 40.96 15.36 63.147 0 36.693-14.507 71.253-40.107 97.28s-61.013 39.68-98.133 39.68c-22.187 0-43.52-5.12-62.293-14.507l-35.413 35.413 509.44 509.013 35.413-35.413c-10.24-19.2-15.36-40.96-15.36-63.147 0-36.693 14.507-71.253 40.107-97.28 25.173-25.173 61.013-39.68 98.133-39.68 22.187 0 43.52 5.12 62.293 14.507l35.413-35.413-509.013-509.013zM570.453 596.053c-5.547 5.547-13.227 8.533-21.333 8.533s-15.787-2.987-21.333-8.533l-164.267-164.267c-5.547-5.547-8.96-13.227-8.96-21.333s2.987-15.36 8.96-21.333l89.6-89.6c5.547-5.547 13.227-8.96 21.333-8.96s15.36 2.987 21.333 8.96l164.267 164.267c11.52 11.52 11.52 30.72 0 42.24l-89.6 89.6z" />
<glyph unicode="&#xe93b;" glyph-name="icon-cycling-indoor" d="M822.613 424.96c-96 0-173.653-78.080-173.653-174.080s78.080-174.080 173.653-174.080 174.080 78.080 174.080 174.080-78.080 174.080-174.080 174.080zM822.613 160.427c-49.92 0-90.453 40.533-90.453 90.453s40.533 90.453 90.453 90.453 90.453-40.533 90.453-90.453-40.533-90.453-90.453-90.453zM719.787 681.387c39.253 0 71.253 32 71.253 71.253s-32 71.253-71.253 71.253-71.253-32-71.253-71.253 32-71.253 71.253-71.253zM350.293 145.067c23.893 30.72 36.693 67.84 36.693 105.813 0 8.107-0.853 17.067-2.133 26.027l90.453 104.533c8.107 9.387 11.52 21.333 9.813 33.28s-8.533 22.613-18.773 29.013l-89.173 56.747c-6.827 4.267-14.507 6.4-22.187 6.4-14.507 0-27.307-7.253-35.413-19.2-5.973-9.387-8.107-20.48-5.547-31.573s8.96-20.053 18.347-26.027l48.213-30.72-33.28-38.4c-32.853 40.107-81.92 63.573-133.973 63.573-96 0-174.080-78.080-174.080-174.080 0-37.973 12.8-75.093 36.693-105.813l-41.387-36.693c-6.4-5.973-8.533-14.933-5.547-23.040s10.667-13.227 19.627-13.227h329.387c8.533 0 16.213 5.12 19.627 13.227 2.987 8.107 0.853 17.067-5.547 23.040l-41.387 36.693zM288 200.533l-61.013 54.187c-3.84 3.413-8.533 5.12-13.653 5.12s-10.24-1.707-13.653-5.12l-61.013-54.187c-10.24 14.933-15.787 32.427-15.787 50.347 0 49.92 40.533 90.453 90.453 90.453s90.453-40.533 90.453-90.453c0-17.92-5.547-35.413-15.787-50.347zM626.347 478.293l-119.467 79.787 74.667 41.387 95.573-95.573c4.267-4.267 9.387-7.68 14.933-9.813l98.987-36.693c4.693-1.707 9.387-2.56 14.507-2.56 17.493 0 32.853 11.093 39.253 27.307 8.107 21.76-2.987 45.653-24.747 53.76l-90.88 33.707-111.36 111.36c-7.68 7.68-18.347 12.373-29.44 12.373-6.827 0-14.080-1.707-20.053-5.12l-162.133-89.6c-12.8-6.827-20.907-20.48-21.333-34.56-0.427-14.507 6.4-28.587 18.347-36.267l146.773-97.707-76.373-160c-9.813-20.907-1.28-45.653 19.627-55.467 5.547-2.56 11.52-4.267 17.92-4.267 15.787 0 30.72 9.387 37.547 23.893l92.16 192.853c8.96 18.773 2.56 41.387-14.507 52.48z" />
<glyph unicode="&#xe93c;" glyph-name="icon-cycling-outdoor" d="M714.24 674.133c39.253 0 71.253 32 71.253 71.253s-32 71.253-71.253 71.253-71.253-32-71.253-71.253 32-71.253 71.253-71.253zM620.373 480.853l-119.467 79.787 74.667 41.387 95.573-95.573c4.267-4.267 9.387-7.68 14.933-9.813l99.413-36.693c4.693-1.707 9.813-2.56 14.507-2.56 17.067 0 32.853 11.093 38.827 27.307 8.107 21.76-2.987 45.653-24.747 53.76l-90.88 33.707-111.36 111.36c-7.68 7.68-18.347 12.373-29.44 12.373-6.827 0-14.080-1.707-20.053-5.12l-162.133-89.6c-12.8-6.827-20.907-20.48-21.333-34.56-0.427-14.507 6.4-28.587 18.347-36.267l146.347-97.707-76.373-160c-4.693-10.24-5.547-21.333-1.707-32s11.52-18.773 21.333-23.893c5.547-2.56 11.52-4.267 17.92-4.267 16.213 0 30.72 9.387 37.547 23.893l92.16 192.853c8.96 18.773 2.56 41.387-14.507 52.48zM817.067 427.093c-96 0-173.653-78.080-173.653-174.080s78.080-174.080 173.653-174.080 174.080 78.080 174.080 174.080-78.080 174.080-174.080 174.080zM817.067 162.56c-49.92 0-90.453 40.533-90.453 90.453s40.533 90.453 90.453 90.453 90.453-40.533 90.453-90.453-40.533-90.453-90.453-90.453zM469.76 383.573c8.107 9.387 11.52 21.333 9.813 33.28s-8.533 22.613-18.773 29.013l-89.173 56.747c-6.827 4.267-14.507 6.4-22.187 6.4-14.507 0-27.733-7.253-35.413-19.2-5.973-9.387-8.107-20.48-5.547-31.573s8.96-20.053 18.347-26.027l48.213-30.72-33.28-38.4c-32.853 40.107-81.92 63.573-133.973 63.573-96 0-174.080-78.080-174.080-174.080s78.080-174.080 174.080-174.080 173.653 78.080 173.653 174.080c0 8.107-0.853 17.067-2.133 26.027l90.453 104.533zM207.36 162.56c-49.92 0-90.453 40.533-90.453 90.453s40.533 90.453 90.453 90.453 90.453-40.533 90.453-90.453-40.533-90.453-90.453-90.453z" />
<glyph unicode="&#xe93d;" glyph-name="icon-delete" d="M188.16 762.88h647.68c23.040 0 41.813 18.773 41.813 41.813s-18.773 41.813-41.813 41.813h-235.52c0 48.64-39.68 88.32-88.32 88.32s-88.32-39.68-88.32-88.32v0s-65.707 0-65.707 0h-169.813c-23.040 0-41.813-18.773-41.813-41.813s18.773-41.813 41.813-41.813zM600.32 108.373c23.040 0 41.813 18.773 41.813 41.813v353.28c0 23.040-18.773 41.813-41.813 41.813s-41.813-18.773-41.813-41.813v-353.28c0-23.040 18.773-41.813 41.813-41.813zM423.68 108.373c23.040 0 41.813 18.773 41.813 41.813v353.28c0 23.040-18.773 41.813-41.813 41.813s-41.813-18.773-41.813-41.813v-353.28c0-23.040 18.773-41.813 41.813-41.813zM802.987 692.48h-581.973c-21.333 0-41.813-9.387-55.893-25.6-14.507-16.64-21.333-38.4-18.347-60.587l69.547-530.773c8.533-65.28 63.573-114.347 127.573-114.347h335.36c64 0 119.040 49.067 127.573 114.347l69.547 530.773c2.987 22.187-3.84 43.947-18.347 60.587-14.080 16.213-34.56 25.173-55.893 25.173zM724.907 86.613c-2.987-23.893-22.613-41.813-44.8-41.813h-335.36c-22.613 0-41.813 17.92-44.8 41.813l-68.267 522.667h562.347l-68.267-522.24z" />
<glyph unicode="&#xe93e;" glyph-name="icon-delivery" d="M986.453 448l-133.12 171.947c-8.107 10.24-20.053 16.213-32.853 16.213h-124.587v134.827c0 23.040-18.773 41.813-41.813 41.813h-583.68c-23.040 0-41.813-18.773-41.813-41.813v-588.8c0-23.040 18.773-41.813 41.813-41.813h41.813v588.8h500.053v-134.827c0-23.040 18.773-41.813 41.813-41.813h145.92l111.787-144.213v-255.573s0-12.373 0-12.373h41.387c23.040 0 41.813 18.773 41.813 41.813v240.213c0 9.387-2.56 18.347-8.533 25.6zM575.573 223.573h-127.573c-23.040 0-41.813-18.773-41.813-41.813s18.773-41.813 41.813-41.813h127.573c23.040 0 41.813 18.773 41.813 41.813s-18.773 41.813-41.813 41.813zM763.733 502.187h-110.080v-110.507h200.96l-90.88 110.507zM246.613 270.080c-48.64 0-88.32-39.68-88.32-88.32s39.68-88.32 88.32-88.32 88.32 39.68 88.32 88.32-39.68 88.32-88.32 88.32zM776.533 270.080c-48.64 0-88.32-39.68-88.32-88.32s39.68-88.32 88.32-88.32 88.32 39.68 88.32 88.32-39.68 88.32-88.32 88.32z" />
<glyph unicode="&#xe93f;" glyph-name="icon-difficulty" d="M188.16 283.733c-23.040 0-41.813-18.773-41.813-41.813v-117.76c0-23.040 18.773-41.813 41.813-41.813s41.813 18.773 41.813 41.813v117.76c0 23.040-18.773 41.813-41.813 41.813zM404.053 401.493c-23.040 0-41.813-18.773-41.813-41.813v-235.52c0-23.040 18.773-41.813 41.813-41.813s41.813 18.773 41.813 41.813v235.52c0 23.040-18.773 41.813-41.813 41.813zM835.84 813.653c-23.040 0-41.813-18.773-41.813-41.813v-647.68c0-23.040 18.773-41.813 41.813-41.813s41.813 18.773 41.813 41.813v647.68c0 23.040-18.773 41.813-41.813 41.813zM619.947 578.133c-23.040 0-41.813-18.773-41.813-41.813v-412.16c0-23.040 18.773-41.813 41.813-41.813s41.813 18.773 41.813 41.813v412.16c0 23.040-18.773 41.813-41.813 41.813z" />
<glyph unicode="&#xe940;" glyph-name="icon-distance" d="M330.24 871.253c-3.413 0.853-6.827 1.28-10.24 1.28-19.2 0-35.84-13.227-40.107-31.573l-191.573-765.44c-5.547-22.187 8.107-44.8 30.293-50.347 3.413-0.853 6.827-1.28 10.24-1.28 19.2 0 35.84 12.8 40.533 31.573l191.147 765.013c5.547 22.187-8.107 44.8-30.293 50.347zM512 573.013c-23.040 0-41.813-18.773-41.813-41.813v-103.68c0-23.040 18.773-41.813 41.813-41.813s41.813 18.773 41.813 41.813v103.68c0 23.040-18.773 41.813-41.813 41.813zM512 249.6c-23.040 0-41.813-18.773-41.813-41.813v-110.933c0-23.040 18.773-41.813 41.813-41.813s41.813 18.773 41.813 41.813v110.933c0 23.040-18.773 41.813-41.813 41.813zM512 842.667c-23.040 0-41.813-18.773-41.813-41.813v-56.747c0-23.040 18.773-41.813 41.813-41.813s41.813 18.773 41.813 41.813v56.747c0 23.040-18.773 41.813-41.813 41.813zM935.68 75.52l-192.427 765.44c-4.693 18.773-21.333 31.573-40.533 31.573-3.413 0-6.827-0.427-10.24-1.28-10.667-2.56-20.053-9.387-25.6-19.2-5.547-9.387-7.253-20.907-4.693-31.573l192.853-765.44c4.693-18.773 21.333-31.573 40.533-31.573 3.413 0 6.827 0 10.24 1.28 10.667 2.56 20.053 9.387 25.6 19.2 5.547 9.387 7.253 20.907 4.693 31.573z" />
<glyph unicode="&#xe941;" glyph-name="icon-document" d="M335.36 641.707h353.28c23.040 0 41.813 18.773 41.813 41.813s-18.773 41.813-41.813 41.813h-353.28c-23.040 0-41.813-18.773-41.813-41.813s18.773-41.813 41.813-41.813zM335.36 406.187h353.28c23.040 0 41.813 18.773 41.813 41.813s-18.773 41.813-41.813 41.813h-353.28c-23.040 0-41.813-18.773-41.813-41.813s18.773-41.813 41.813-41.813zM835.84 931.413h-647.68c-23.040 0-41.813-18.773-41.813-41.813v-883.2c0-23.040 18.773-41.813 41.813-41.813h647.68c23.040 0 41.813 18.773 41.813 41.813v883.2c0 23.040-18.773 41.813-41.813 41.813zM794.027 48.213h-564.053v799.573h564.48v-799.573zM335.36 171.093h353.28c23.040 0 41.813 18.773 41.813 41.813s-18.773 41.813-41.813 41.813h-353.28c-23.040 0-41.813-18.773-41.813-41.813s18.773-41.813 41.813-41.813z" />
<glyph unicode="&#xe942;" glyph-name="icon-double-tab" d="M282.88 846.080c87.040 0 157.867-70.827 157.867-157.867 0-23.040 18.773-41.813 41.813-41.813s41.813 18.773 41.813 41.813c-0.427 133.12-108.373 241.493-241.493 241.493s-241.493-108.373-241.493-241.493c0-23.040 18.773-41.813 41.813-41.813s41.813 18.773 41.813 41.813c0 87.040 70.827 157.867 157.867 157.867zM604.16 430.507c-8.96 11.947-27.307 36.267-235.52 53.333l-8.533 151.040c-2.56 26.027-24.32 64.427-72.96 64.427-43.947 0-69.12-32-74.667-63.573-5.12-88.32-13.653-218.027-16.213-246.613-2.133-1.28-4.693-2.987-6.827-4.267-19.627-11.52-55.467-32.853-57.173-79.36-1.28-40.533 47.787-110.507 84.907-157.44-14.080-6.827-24.32-20.907-24.32-37.973v-104.533c0-23.040 18.773-41.813 41.813-41.813h330.24c23.040 0 41.813 18.773 41.813 41.813v104.533c0 17.493-10.667 32.427-25.6 38.4 36.267 93.013 49.92 247.040 23.467 281.6zM523.093 47.36h-247.467v20.907h246.613v-20.907zM490.24 151.893h-166.827c-43.093 43.52-101.547 130.133-107.093 150.187 2.987 2.987 12.373 8.533 15.787 10.667 14.933 8.96 35.413 20.907 42.24 45.653 3.413 11.947 7.68 62.293 11.52 116.907l1.707-32.427c1.28-20.907 17.92-37.547 38.4-39.253 88.32-6.4 176.213-17.92 208.64-26.88 2.133-44.8-12.373-174.507-44.8-224.853zM689.067 845.653l-34.56-55.040-34.56 55.040h-49.493l57.173-82.773-57.173-84.053h49.493l34.56 56.32 34.56-56.32h49.92l-57.6 84.053 57.6 82.773h-49.92zM851.627 716.8c9.387 5.547 18.773 12.8 28.587 21.76s19.2 19.2 28.16 30.72c8.96 11.093 16.213 23.467 22.187 37.12 5.547 13.227 8.533 26.453 8.533 38.4 0 23.040-7.253 40.96-21.333 54.187-14.080 12.8-32.427 19.2-54.613 19.2-10.24 0-19.627-1.707-28.587-4.693s-16.64-7.68-23.040-13.227c-6.4-5.547-11.947-11.947-16.64-19.2s-8.107-15.36-10.667-23.467c-2.133-8.533-3.413-17.067-3.413-25.6l41.387-2.56c0 6.4 1.28 12.8 2.56 18.347 1.707 5.547 3.84 11.093 6.827 16.213s7.253 8.96 12.8 11.947c5.547 2.987 11.947 4.267 19.2 4.267 11.093 0 19.2-2.987 24.747-9.387s8.107-14.507 8.107-24.747c0-10.667-2.56-21.76-8.107-33.28s-11.947-21.76-20.053-30.72c-8.107-9.387-17.493-18.347-28.16-27.733-11.093-9.387-20.907-17.067-30.293-23.467-8.96-6.4-18.347-12.373-28.16-17.92v-33.707h168.96v38.4h-98.987z" />
<glyph unicode="&#xe943;" glyph-name="icon-download" d="M247.040 417.707l237.653-234.667c3.84-3.84 8.107-6.827 13.227-8.96s10.24-3.413 15.36-3.413c1.707 0 3.413 0 5.12 0 12.8 0 20.48 8.107 24.32 11.947l234.24 236.8c16.213 16.213 16.213 42.667 0 58.88-7.68 7.68-18.347 11.947-29.44 11.947s-21.76-4.267-29.867-12.373l-162.133-163.84v575.573c0 23.040-18.773 41.813-41.813 41.813s-41.813-18.773-41.813-41.813v-577.28l-166.4 164.693c-7.68 7.68-18.347 11.947-29.44 11.947s-21.76-4.267-29.867-12.373c-16.213-16.213-16.213-42.667 0-58.88zM853.76 789.76c-7.68 7.68-18.347 12.373-29.44 12.373s-21.76-4.267-29.44-12.373c-16.213-16.213-16.213-42.667 0-58.88 155.733-155.733 155.733-409.6 0-565.76-75.52-75.52-175.787-116.907-282.88-116.907s-207.36 41.387-282.88 116.907c-155.733 155.733-155.733 409.6 0 565.76 16.213 16.213 16.213 42.667 0 58.88-7.68 7.68-18.347 12.373-29.44 12.373s-21.76-4.267-29.44-12.373c-188.587-188.587-188.587-495.36 0-683.52 91.307-91.307 212.48-141.227 341.76-141.227s250.453 50.347 341.76 141.227c188.587 188.587 188.587 494.933 0 683.52z" />
<glyph unicode="&#xe944;" glyph-name="icon-drizzle" d="M512 165.973h-0.853c-39.253-0.427-70.827-32.853-70.4-72.107 0.427-38.827 32.427-70.4 71.253-70.4 40.107 0.427 71.68 32.853 71.253 72.107-0.427 38.827-32.427 70.4-71.253 70.4zM276.48 165.973h-0.853c-39.253-0.427-70.827-32.853-70.4-72.107 0.427-38.827 32.427-70.4 71.253-70.4 40.107 0.427 71.68 32.853 71.253 72.107-0.427 38.827-32.427 70.4-71.253 70.4zM747.52 165.973h-0.853c-39.253-0.427-70.827-32.853-70.4-72.107 0.427-38.827 32.427-70.4 71.253-70.4 40.107 0.427 71.68 32.853 71.253 72.107-0.427 38.827-32.427 70.4-71.253 70.4zM826.027 531.627c1.28 7.68 1.707 15.787 1.707 23.467 0 82.347-64.853 148.907-144.64 148.907-8.107 0-16.64-0.853-24.32-2.133-7.253 96-84.48 170.667-177.92 170.667-98.56 0-178.347-82.773-178.347-183.893 0-5.547 0-10.667 0.853-16.213-5.547 0.427-11.093 0.853-16.213 0.853-109.653 0-199.253-92.16-199.253-205.653s89.173-205.653 198.827-205.653l516.693-2.56c73.387 0 133.547 61.44 133.547 137.387 0 66.987-47.36 123.733-110.507 135.253zM803.413 342.613l-516.693 2.56c-64 0-115.627 54.613-115.627 122.027s52.053 122.027 115.627 122.027c20.907 0 41.387-5.973 59.307-17.067 5.973-3.84 12.8-5.973 19.627-5.973 11.093 0 21.76 4.693 30.72 13.653 13.653 13.227 15.36 36.267 4.693 53.76-10.24 16.213-15.36 35.413-15.36 55.040 0 55.467 42.667 100.693 95.147 100.693s95.147-45.227 95.147-100.693c0-17.067-4.267-34.133-11.947-49.067-9.813-18.347-4.267-41.387 12.373-53.333 7.253-5.12 15.36-7.68 24.32-7.68 11.52 0 22.613 4.693 30.293 12.8 2.133 2.133 4.693 5.12 5.12 5.973 11.52 14.933 28.587 23.467 46.933 23.467 33.707 0 61.44-29.44 61.44-65.707 0-18.773-7.68-36.693-20.907-49.493-15.36-14.507-17.493-38.4-4.693-55.467 8.107-10.667 20.053-16.64 33.28-16.64 7.68 0 14.933 2.133 21.76 5.973 11.093 6.4 23.893 10.667 29.44 10.667 27.733 0 49.92-24.32 49.92-53.76s-22.187-53.76-49.92-53.76z" />
<glyph unicode="&#xe945;" glyph-name="icon-edit" d="M924.16 637.44l-225.28 225.28c-7.68 7.68-18.347 12.373-29.44 12.373s-21.333-4.267-29.44-11.947l-540.16-538.027c-7.68-7.68-12.373-18.347-12.373-29.44v-232.533c0-23.040 18.773-41.813 41.813-41.813h220.587c11.093 0 21.76 4.267 29.44 12.373l544.853 544.853c16.213 16.213 16.213 42.667 0 58.88zM171.093 104.533v135.253l135.253-135.253h-135.253zM378.453 150.187l-167.68 167.68 337.92 336.213 166.827-166.827-337.067-337.067zM774.4 546.133l-166.4 166.4 61.44 61.013 166.4-166.4-61.44-61.44z" />
<glyph unicode="&#xe946;" glyph-name="icon-keyboard-erg" d="M786.347 901.973h-548.693c-98.987 0-179.627-80.64-179.627-179.627v-548.267c0-98.987 80.64-179.627 179.627-179.627h548.267c98.987 0 179.627 80.64 179.627 179.627v548.267c0 98.987-80.64 179.627-179.627 179.627zM882.773 174.080c0-52.907-43.093-96.427-96.427-96.427h-548.693c-52.907 0-96.427 43.093-96.427 96.427v548.267c0 52.907 43.093 96.427 96.427 96.427h548.267c52.907 0 96.427-43.093 96.427-96.427v-548.267zM242.773 346.027h135.253v34.56h-98.56v50.347h91.733v33.707h-91.733v51.2h98.56v33.28h-135.253v-203.093zM702.72 426.24h44.8c-0.427-16.213-5.973-28.587-15.787-37.547-9.813-8.533-23.040-13.227-39.253-13.227-10.667 0-19.627 1.707-27.733 5.547s-14.507 8.96-19.627 15.787c-4.693 6.827-8.533 14.507-11.093 23.040s-3.84 18.347-3.84 28.587c0 9.813 1.28 18.773 3.84 27.307s5.973 15.787 11.093 22.613c4.693 6.827 11.093 11.947 19.2 15.787s17.067 5.973 27.733 5.973c13.227 0 25.173-3.413 34.987-9.813s17.067-16.64 21.76-29.867l32.427 13.653c-8.107 18.773-20.053 33.28-35.413 43.52-15.36 9.813-33.28 14.933-53.333 14.933-13.227 0-25.173-1.707-35.84-5.547s-20.053-8.96-27.733-15.36c-7.68-6.4-14.080-14.080-19.2-23.040s-8.96-18.347-11.52-28.587c-2.56-10.24-3.84-20.907-3.84-32.427 0-14.080 2.133-27.307 5.973-40.107s10.24-23.467 17.92-33.28c7.68-9.813 18.347-17.493 31.147-23.040s27.307-8.533 43.52-8.533c13.227 0 25.173 2.987 35.84 8.533s18.773 13.227 24.32 23.040l2.987-28.587h29.013v109.653h-81.493v-29.44zM552.533 456.533c7.253 9.387 11.093 20.053 11.093 32.853 0 9.387-1.707 17.92-5.547 25.6s-8.96 14.080-15.36 18.773c-6.4 5.12-14.080 8.96-22.187 11.52-8.533 2.56-17.493 3.84-26.88 3.84h-65.707v-203.093h36.693v86.613h24.32l49.92-86.613h41.813l-56.32 90.453c11.947 4.267 21.333 10.667 28.587 20.053zM496.64 462.507h-32v53.76h29.013c10.24 0 18.773-2.56 24.747-7.68s9.387-11.947 9.387-20.053c0-7.68-2.56-13.653-8.107-18.347s-13.227-7.253-22.613-7.68z" />
<glyph unicode="&#xe947;" glyph-name="icon-expad-screen" d="M428.373 872.533h-299.093c-23.040 0-41.813-18.773-41.813-41.813v-299.093c0-23.040 18.773-41.813 41.813-41.813s41.813 18.773 41.813 41.813v257.707h257.28c23.040 0 41.813 18.773 41.813 41.813s-18.773 41.813-41.813 41.813zM428.373 106.667h-257.28v257.28c0 23.040-18.773 41.813-41.813 41.813s-41.813-18.773-41.813-41.813v-299.093c0-23.040 18.773-41.813 41.813-41.813h299.093c23.040 0 41.813 18.773 41.813 41.813s-18.773 41.813-41.813 41.813zM894.72 405.76c-23.040 0-41.813-18.773-41.813-41.813v-257.28h-257.28c-23.040 0-41.813-18.773-41.813-41.813s18.773-41.813 41.813-41.813h299.093c23.040 0 41.813 18.773 41.813 41.813v299.093c0 23.040-18.773 41.813-41.813 41.813zM894.72 872.533h-299.093c-23.040 0-41.813-18.773-41.813-41.813s18.773-41.813 41.813-41.813h257.28v-257.28c0-23.040 18.773-41.813 41.813-41.813s41.813 18.773 41.813 41.813v299.093c0 23.040-18.773 41.813-41.813 41.813z" />
<glyph unicode="&#xe948;" glyph-name="icon-expand-less-circle" d="M512 931.413c-266.667 0-483.413-216.747-483.413-483.413s216.747-483.413 483.413-483.413 483.413 216.747 483.413 483.413-216.747 483.413-483.413 483.413zM512 48.213c-220.587 0-399.787 179.2-399.787 399.787s179.2 399.787 399.787 399.787 399.787-179.2 399.787-399.787-179.2-399.787-399.787-399.787zM539.733 581.12c-6.827 6.827-14.933 8.96-22.187 10.667l-4.267 0.853h-1.707s-1.707 0-1.707 0c-11.093 0-21.76-4.693-29.44-12.373l-204.373-206.507c-7.68-8.107-11.947-18.347-11.947-29.44s4.267-21.76 12.373-29.44c7.68-7.68 18.347-11.947 29.44-11.947s21.76 4.267 29.867 12.373l174.933 177.067 178.347-176.213c8.107-7.68 18.347-11.947 29.44-11.947s21.76 4.267 29.44 12.373c7.68 8.107 11.947 18.347 11.947 29.44s-4.267 21.76-12.373 29.44l-207.787 205.653z" />
<glyph unicode="&#xe949;" glyph-name="icon-expand-less" d="M776.96 360.96l-237.653 234.667c-7.68 7.68-18.347 11.947-29.44 11.947s-21.76-4.267-29.867-12.373l-233.387-236.373c-7.68-8.107-11.947-18.347-11.947-29.44s4.267-21.76 12.373-29.44c7.68-7.68 18.347-11.947 29.44-11.947s21.76 4.267 29.867 12.373l204.373 206.507 207.787-205.653c7.68-7.68 18.347-11.947 29.44-11.947s21.76 4.267 29.867 12.373c7.68 8.107 11.947 18.347 11.947 29.44s-4.267 21.76-12.373 29.44z" />
<glyph unicode="&#xe94a;" glyph-name="icon-expand-more-circle" d="M718.080 593.067c-11.093 0-21.76-4.267-29.867-12.373l-174.933-177.067-178.347 176.213c-8.107 7.68-18.347 11.947-29.44 11.947s-21.76-4.267-29.44-12.373c-7.68-7.68-11.947-18.347-11.947-29.44s4.267-21.76 12.373-29.44l207.787-205.653c7.68-7.68 18.347-11.947 29.44-11.947 0 0 0 0 0.427 0 11.52 0 21.76 4.693 29.013 12.373l204.373 206.507c7.68 8.107 11.947 18.347 11.947 29.44s-4.267 21.76-12.373 29.44c-7.68 7.68-18.347 11.947-29.44 11.947zM512 931.413c-266.667 0-483.413-216.747-483.413-483.413s216.747-483.413 483.413-483.413 483.413 216.747 483.413 483.413-216.747 483.413-483.413 483.413zM512 48.213c-220.587 0-399.787 179.2-399.787 399.787s179.2 399.787 399.787 399.787 399.787-179.2 399.787-399.787-179.2-399.787-399.787-399.787z" />
<glyph unicode="&#xe94b;" glyph-name="icon-expand-more" d="M776.96 595.627c-7.68 7.68-18.347 11.947-29.44 11.947s-21.76-4.267-29.867-12.373l-204.373-206.507-207.787 205.653c-7.68 7.68-18.347 11.947-29.44 11.947s-21.76-4.267-29.44-12.373c-7.68-8.107-11.947-18.347-11.947-29.44s4.267-21.76 12.373-29.44l237.653-234.667c7.68-7.68 18.347-11.947 29.44-11.947s21.76 4.267 29.867 12.373l233.387 236.373c7.68 8.107 11.947 18.347 11.947 29.44s-4.267 21.76-12.373 29.44z" />
<glyph unicode="&#xe94c;" glyph-name="icon-export" d="M226.56 847.787h387.413v-104.96h83.2v146.773c0 23.040-18.773 41.813-41.813 41.813h-470.613c-23.040 0-41.813-18.773-41.813-41.813v-647.68c0-23.040 18.773-41.813 41.813-41.813h146.773v83.627h-104.96v564.053zM832.427 48.213h-370.347v564.053h370.347c23.040 0 41.813 18.773 41.813 41.813s-18.773 41.813-41.813 41.813h-412.16c-23.040 0-41.813-18.773-41.813-41.813v-647.68c0-23.040 18.773-41.813 41.813-41.813h412.16c23.040 0 41.813 18.773 41.813 41.813s-18.773 41.813-41.813 41.813zM678.827 223.147c0-11.093 4.267-21.76 12.373-29.44s18.347-11.947 29.44-11.947 21.76 4.267 29.44 12.373l108.373 108.8v0.853c3.84 3.413 5.973 7.253 7.68 11.52s2.56 8.533 2.56 12.373v1.707s0.427 1.707 0.427 1.707c0 5.547-1.28 11.093-3.413 16.213s-5.12 9.387-8.96 13.653l-107.093 106.24c-8.107 7.68-18.347 11.947-29.44 11.947s-21.76-4.267-29.44-12.373c-7.68-7.68-11.947-18.347-11.947-29.44s4.267-21.76 12.373-29.44l35.413-34.987h-163.413c-23.040 0-41.813-18.773-41.813-41.813s18.773-41.813 41.813-41.813h164.267l-36.267-36.267c-7.68-8.107-12.373-18.347-11.947-29.44z" />
<glyph unicode="&#xe94d;" glyph-name="icon-facebook" d="M567.467 569.6v61.013c0 31.573 2.56 48.64 47.787 48.64h61.013v122.027h-97.28c-116.907 0-143.787-60.587-143.787-159.573v-71.68s-88.32 0-88.32 0v-121.6h88.32v-353.28h132.267v352.853s96.427 0 96.427 0l12.8 121.6h-109.653z" />
<glyph unicode="&#xe94e;" glyph-name="icon-filter" d="M129.28 715.52h84.48c17.067-44.373 58.88-73.387 107.093-73.387 63.573 0 115.2 51.627 115.2 115.2s-51.627 115.2-115.2 115.2c-47.787 0-90.027-29.013-107.093-73.813h-84.48c-23.040 0-41.813-18.773-41.813-41.813s18.773-41.813 41.813-41.813zM320.853 254.293c-47.787 0-90.027-29.013-107.093-73.387h-84.48c-23.040 0-41.813-18.773-41.813-41.813s18.773-41.813 41.813-41.813h84.48c17.067-44.373 58.88-73.813 107.093-73.813 63.573 0 115.2 51.627 115.2 115.2s-51.627 115.2-115.2 115.2zM541.44 715.52h353.28c23.040 0 41.813 18.773 41.813 41.813s-18.773 41.813-41.813 41.813h-353.28c-23.040 0-41.813-18.773-41.813-41.813s18.773-41.813 41.813-41.813zM894.72 489.813h-84.48c-17.067 44.373-58.88 73.387-107.093 73.387-63.573 0-115.2-51.627-115.2-115.2s51.627-115.2 115.2-115.2c47.787 0 90.027 29.013 107.093 73.387h84.48c23.040 0 41.813 18.773 41.813 41.813s-18.773 41.813-41.813 41.813zM524.373 448c0 23.040-18.773 41.813-41.813 41.813h-353.28c-23.040 0-41.813-18.773-41.813-41.813s18.773-41.813 41.813-41.813h353.28c23.040 0 41.813 18.773 41.813 41.813zM894.72 180.48h-353.28c-23.040 0-41.813-18.773-41.813-41.813s18.773-41.813 41.813-41.813h353.28c23.040 0 41.813 18.773 41.813 41.813s-18.773 41.813-41.813 41.813z" />
<glyph unicode="&#xe94f;" glyph-name="icon-finish" d="M869.12 392.107l-142.933 190.72 143.36 190.72c9.387 12.8 11.093 29.44 3.84 43.52s-21.333 23.040-37.12 23.040h-606.293v49.493c0 23.040-18.773 41.813-41.813 41.813s-41.813-18.773-41.813-41.813v-883.2c0-23.040 18.773-41.813 41.813-41.813s41.813 18.773 41.813 41.813v319.147h605.867c15.787 0 30.293 8.96 37.12 23.040 7.253 14.080 5.547 31.147-3.84 43.52zM445.867 595.2h-215.893v161.707h215.893v-161.707zM470.613 408.747v162.133h163.84c1.28-4.693 3.413-8.96 6.4-12.8l111.787-149.333h-282.027z" />
<glyph unicode="&#xe950;" glyph-name="icon-first-page" d="M320.427 754.773c-23.040 0-41.813-18.773-41.813-41.813v-529.92c0-23.040 18.773-41.813 41.813-41.813s41.813 18.773 41.813 41.813v529.92c0 23.040-18.773 41.813-41.813 41.813zM733.013 242.347l-206.507 204.373 205.653 207.787c7.68 8.107 11.947 18.347 11.947 29.44s-4.267 21.76-12.373 29.44c-8.107 7.68-18.347 11.947-29.44 11.947s-21.76-4.267-29.44-12.373l-234.667-237.653c-7.68-8.107-11.947-18.347-11.947-29.44s4.693-21.76 12.373-29.44l236.373-233.387c7.68-7.68 18.347-11.947 29.44-11.947s21.76 4.267 29.44 12.373c7.68 8.107 11.947 18.347 11.947 29.44s-4.267 21.76-12.373 29.44z" />
<glyph unicode="&#xe951;" glyph-name="icon-fitness" d="M714.24 692.48c39.253 0 71.253 32 71.253 71.253s-32 71.253-71.253 71.253-71.253-32-71.253-71.253 32-71.253 71.253-71.253zM867.84 440.747c-6.827 14.507-21.76 24.32-37.973 24.32-5.973 0-11.947-1.28-17.493-3.84l-76.8-35.84c-8.96-4.267-16.213-11.093-20.053-20.053l-75.947-161.28c-23.893 8.533-52.053 18.773-82.347 29.013l84.48 177.067c8.96 18.773 2.56 41.387-14.507 52.48l-119.467 79.787 74.667 41.387 95.573-95.573c4.267-4.267 9.387-7.68 14.933-9.813l99.413-36.693c4.693-1.707 9.813-2.56 14.507-2.56 17.067 0 32.853 11.093 38.827 27.307 8.107 21.76-2.987 45.653-24.747 53.76l-90.88 33.707-111.36 111.36c-7.68 7.68-18.347 12.373-29.44 12.373-7.253 0-14.080-1.707-20.053-5.12l-162.133-89.6c-12.8-6.827-20.907-20.48-21.333-34.56-0.427-14.507 6.4-28.587 18.773-36.693l146.773-97.707-72.96-153.173c-26.453 8.96-50.773 17.493-71.68 24.747l70.4 81.067c8.107 8.96 11.52 21.333 9.813 33.28s-8.533 22.613-18.773 29.013l-89.173 56.747c-6.827 4.267-14.507 6.4-22.187 6.4-14.507 0-27.733-7.253-35.413-19.2-5.973-9.387-8.107-20.48-5.547-31.573 2.56-10.667 8.96-20.053 18.347-26.027l48.213-30.72-62.72-72.107c-7.253 0.853-13.653 1.707-20.48 1.707-80.64 0-145.92-65.707-145.92-145.92s65.707-145.92 145.92-145.92h346.453c5.12 0 10.24 0.853 14.933 2.56 42.24 7.253 72.533 42.667 72.533 84.48 0 20.053-7.253 39.253-20.053 55.040l71.68 152.32 63.147 29.44c10.24 4.693 17.92 13.227 21.76 23.467 3.84 10.667 3.413 21.76-1.28 32zM645.547 144.64h-347.307c-34.56 0-62.72 28.16-62.72 62.72s28.16 62.72 62.72 62.72c4.267 0 8.533 0 12.8-1.28 2.987-0.427 5.973-1.28 9.387-2.56l3.413-1.28c58.027-19.627 253.44-86.187 324.267-113.067 0.427 0 1.707-1.707 1.707-3.413 0-2.133-1.707-3.84-3.84-3.84z" />
<glyph unicode="&#xe952;" glyph-name="icon-foggy" d="M187.733 730.027h529.92c23.040 0 41.813 18.773 41.813 41.813s-18.773 41.813-41.813 41.813h-529.92c-23.040 0-41.813-18.773-41.813-41.813s18.773-41.813 41.813-41.813zM264.96 555.947c0-23.040 18.773-41.813 41.813-41.813h529.92c23.040 0 41.813 18.773 41.813 41.813s-18.773 41.813-41.813 41.813h-530.347c-23.040 0-41.813-18.773-41.813-41.813zM836.693 165.973h-530.347c-23.040 0-41.813-18.773-41.813-41.813s18.773-41.813 41.813-41.813h529.92c23.040 0 41.813 18.773 41.813 41.813s-18.773 41.813-41.813 41.813zM759.467 340.053c0 23.040-18.773 41.813-41.813 41.813h-529.92c-23.040 0-41.813-18.773-41.813-41.813s18.773-41.813 41.813-41.813h529.92c23.040 0 41.813 18.773 41.813 41.813z" />
<glyph unicode="&#xe953;" glyph-name="icon-google" d="M520.107 368.213v156.587h393.813c5.973-26.453 10.667-51.2 10.667-86.187 0-240.213-161.28-410.88-403.627-410.88s-421.12 188.16-421.12 420.267 188.587 420.693 420.693 420.693c113.493 0 208.64-41.813 281.173-109.653l-119.467-116.053c-30.293 28.587-83.2 62.293-161.707 62.293-139.093 0-252.587-115.627-252.587-257.28s113.493-257.28 252.587-257.28c161.28 0 220.587 111.36 231.253 177.493h-231.68z" />
<glyph unicode="&#xe954;" glyph-name="icon-heartrate-off" d="M953.6 131.84l-829.44 695.893c-7.68 6.4-17.067 9.813-26.88 9.813-12.373 0-23.893-5.547-32-14.933-7.253-8.533-10.667-19.2-9.813-30.293s6.4-21.333 14.933-28.16l50.773-42.667c-53.76-96.427-40.533-221.867 33.28-301.653l328.107-354.56s0.853-0.853 0.853-0.853c2.56-2.133 5.12-3.413 6.827-4.693l1.28-0.853 4.693-2.56c5.12-2.133 10.24-2.987 15.787-2.987s10.667 0.853 15.787 2.987h1.28s2.987 2.56 2.987 2.56c3.413 1.707 5.547 2.987 8.107 5.547l1.28 1.28s0.853 1.28 0.853 1.28l157.013 169.813 200.107-168.107c7.253-6.4 17.067-9.813 26.88-9.813 12.373 0 23.893 5.547 32 14.933 7.253 8.533 10.667 19.2 9.387 30.293-0.853 11.093-6.4 21.333-14.933 28.16zM523.093 67.413v0s0 0 0 0c0 0 0 0 0 0zM512 156.16l-296.107 320c-46.507 50.347-58.027 127.147-29.44 190.72l449.28-377.173-123.733-133.547zM320.427 759.467c39.253 0 76.373-16.64 104.533-47.36l55.893-60.587c7.68-8.107 18.773-12.8 30.72-12.8s23.040 4.693 30.72 12.8l55.893 60.587c28.16 30.293 65.28 47.36 104.533 47.36s76.373-16.64 104.533-47.36c60.16-65.28 60.16-171.093 0-236.373l-63.147-68.267c-6.827-7.253-9.813-16.213-10.24-25.173l50.773-42.667c7.68 2.133 14.933 5.12 20.48 11.093l63.147 68.267c88.747 96.427 88.747 253.013 0 349.44-43.947 47.787-102.827 73.813-165.973 73.813s-122.027-26.453-165.973-74.24l-25.173-27.307-25.6 27.733c-44.373 47.787-102.827 74.24-165.547 74.24-17.493 0-34.987-2.133-52.053-6.4-10.667-2.56-20.053-9.387-26.027-18.773-3.413-5.547-5.12-11.947-5.547-18.347l52.053-43.52c10.24 2.56 20.48 3.84 30.72 3.84z" />
<glyph unicode="&#xe955;" glyph-name="icon-heartrate" d="M869.12 768.853c-43.947 47.787-102.827 73.813-165.973 73.813v0c-62.72 0-122.027-26.453-165.973-74.24l-25.173-27.307-25.6 27.733c-44.373 47.787-103.253 73.813-165.973 73.813s-122.027-26.453-165.973-74.24c-88.747-96.427-88.747-253.013 0-349.44l326.827-353.28c8.107-8.533 19.2-13.227 30.72-13.227s22.613 4.693 30.72 13.227l326.827 353.28c88.747 96.427 88.747 253.013 0 349.44zM808.107 476.16l-296.107-320-296.107 320c-60.16 65.28-60.16 171.093 0 236.373 28.16 30.293 65.28 47.36 104.533 47.36s76.373-16.64 104.533-47.36l55.893-60.587c7.68-8.107 18.773-12.8 30.72-12.8s23.040 4.693 30.72 12.8l55.893 60.587c28.16 30.293 65.28 47.36 104.533 47.36s76.373-16.64 104.533-47.36c60.16-65.28 60.16-171.093 0-236.373z" />
<glyph unicode="&#xe956;" glyph-name="icon-heavy-rain" d="M311.893 215.893c-7.68 7.68-18.347 12.373-29.44 12.373s-21.76-4.267-29.44-12.373l-83.2-83.2c-16.213-16.213-16.213-42.667 0-58.88 7.68-7.68 18.347-12.373 29.44-12.373s21.76 4.267 29.44 12.373l83.2 83.2c7.68 7.68 12.373 18.347 12.373 29.44s-4.267 21.76-12.373 29.44zM861.44 547.413c0.853 6.827 1.707 14.080 1.707 20.907 0 80.213-64.853 145.067-144.64 145.067-8.107 0-16.64-0.853-24.32-2.133-7.68 92.16-84.48 164.267-177.92 164.267-98.56 0-178.347-80.213-178.347-178.773 0-4.693 0-9.387 0.427-14.080-5.547 0.427-10.667 0.853-16.213 0.853-109.653 0-198.827-89.6-198.827-199.68s89.173-199.68 198.827-199.68l516.693-2.56c73.387 0 133.547 60.16 133.547 133.547 0 65.28-47.36 120.32-110.080 131.413zM838.4 365.653l-516.693 2.56c-64 0-115.627 52.053-115.627 116.053s52.053 116.053 115.627 116.053c21.333 0 41.813-5.973 59.733-16.64 5.973-3.84 12.373-5.547 19.2-5.547 11.093 0 22.187 5.12 31.147 14.080 13.227 13.653 14.933 36.693 3.84 53.76-9.813 15.36-14.933 33.28-14.933 51.2 0 52.48 42.667 95.573 95.147 95.573s95.147-42.667 95.147-95.573c0-16.213-4.267-32-11.947-46.080-9.813-18.347-4.693-41.387 11.947-53.76 7.253-5.12 15.787-8.107 24.747-8.107 11.52 0 22.187 4.693 29.867 12.8 2.987 2.987 4.693 4.693 5.12 5.547 11.947 14.507 29.013 22.613 47.787 22.613 33.707 0 61.44-27.733 61.44-61.867 0-17.493-7.253-34.133-20.48-45.653-15.787-14.507-18.347-38.4-5.547-55.467 7.68-10.667 20.48-17.067 33.707-17.067 7.253 0 14.507 2.133 20.907 5.547 11.093 6.4 23.893 10.24 29.867 10.24 27.733 0 49.92-22.613 49.92-50.347s-22.187-50.347-49.92-50.347zM488.533 228.267c-11.093 0-21.76-4.267-29.44-12.373l-125.013-125.013c-16.213-16.213-16.213-42.667 0-58.88 7.68-7.68 18.347-12.373 29.44-12.373s21.76 4.267 29.44 12.373l125.013 125.013c16.213 16.213 16.213 42.667 0 58.88-7.68 7.68-18.347 12.373-29.44 12.373zM164.693 274.773c-7.68 7.68-18.347 12.373-29.44 12.373s-21.76-4.267-29.44-12.373l-41.813-41.813c-7.68-7.68-12.373-18.347-12.373-29.44s4.267-21.76 12.373-29.44 18.347-12.373 29.44-12.373 21.76 4.267 29.44 12.373l41.813 41.813c16.213 16.213 16.213 42.667 0 58.88zM665.173 228.267c-11.093 0-21.76-4.267-29.44-12.373l-83.2-83.2c-7.68-7.68-12.373-18.347-12.373-29.44s4.267-21.76 12.373-29.44c7.68-7.68 18.347-12.373 29.44-12.373s21.76 4.267 29.44 12.373l83.2 83.2c16.213 16.213 16.213 42.667 0 58.88-7.68 7.68-18.347 12.373-29.44 12.373zM812.373 236.8c-11.093 0-21.76-4.267-29.44-12.373l-41.813-41.813c-7.68-7.68-12.373-18.347-12.373-29.44s4.267-21.76 12.373-29.44 18.347-12.373 29.44-12.373 21.76 4.267 29.44 12.373l41.813 41.813c16.213 16.213 16.213 42.667 0 58.88-7.68 7.68-18.347 12.373-29.44 12.373z" />
<glyph unicode="&#xe957;" glyph-name="icon-help" d="M504.747 225.707c-39.253 0-71.253-32-71.253-71.253s32-71.253 71.253-71.253 71.253 32 71.253 71.253-32 71.253-71.253 71.253zM512 812.373c-107.947 0-195.413-87.893-195.413-195.413v-12.373h83.627v12.373c0 61.867 50.347 112.213 112.213 112.213s112.213-50.347 112.213-112.213c0-32-13.227-44.8-54.613-80.64-15.787-13.653-35.413-30.72-55.040-51.2-36.693-36.693-57.173-85.76-57.173-138.24v-65.707h83.627v65.707c0 29.867 11.947 58.027 33.28 79.787 17.493 18.347 34.56 32.853 49.493 45.653 43.947 37.973 84.053 72.96 84.053 144.64 0 107.947-87.893 195.413-195.413 195.413z" />
<glyph unicode="&#xe958;" glyph-name="icon-home" d="M536.747 700.16c-7.253 5.12-15.787 8.107-24.747 8.107s-17.493-2.56-24.32-8.107l-324.267-235.52c-10.667-7.68-17.067-20.48-17.067-33.707v-382.293c0-23.040 18.773-41.813 41.813-41.813h249.6c23.040 0 41.813 18.773 41.813 41.813v193.707h65.28v-193.707c0-23.040 18.773-41.813 41.813-41.813h246.187c22.613 0 41.387 18.347 41.813 41.387l3.413 382.293c0 13.653-6.4 26.027-17.067 34.133l-323.84 235.947zM791.040 90.027h-162.987v193.707c0 23.040-18.773 41.813-41.813 41.813h-148.907c-23.040 0-41.813-18.773-41.813-41.813v-193.707h-165.973v319.573l282.027 205.653 282.027-205.227-2.987-319.573zM919.467 602.453l-382.72 279.040c-7.253 5.12-15.787 8.107-24.747 8.107s-17.493-2.56-24.32-8.107l-383.147-278.613c-18.773-13.653-22.613-39.68-8.96-58.453 7.68-10.667 20.48-17.067 33.707-17.067 8.96 0 17.493 2.56 24.32 8.107l358.4 260.693 357.973-260.693c7.253-5.12 15.787-8.107 24.32-8.107 13.227 0 26.027 6.4 33.707 17.067 13.653 18.347 9.387 44.8-8.96 58.027z" />
<glyph unicode="&#xe959;" glyph-name="icon-icy" d="M964.693 395.52c-4.693 18.347-21.333 31.147-40.107 31.147-3.84 0-7.253-0.427-10.667-1.28l-189.867-50.773-129.707 75.093 128.427 72.96 189.867-53.333c3.84-0.853 7.253-1.707 11.093-1.707 18.773 0 34.987 12.373 40.107 30.293 6.4 22.187-6.827 45.227-29.013 51.627l-110.507 31.147 96.427 55.040c9.813 5.547 16.64 14.507 19.627 25.173s1.707 22.187-3.84 31.573c-7.253 12.8-21.333 20.907-36.267 20.907-7.253 0-14.507-1.707-20.48-5.547l-95.573-54.613 29.867 109.227c5.973 22.187-6.827 45.227-29.013 51.2-3.84 0.853-7.253 1.28-10.667 1.28-18.773 0-35.413-12.8-40.533-30.72l-52.053-189.44-130.133-74.24v144.64l140.373 138.667c16.213 16.213 16.64 42.667 0 58.88-7.68 8.107-18.347 12.373-29.867 12.373s-21.333-4.267-29.44-11.947l-81.92-80.64v111.36c0 23.040-18.773 41.813-41.813 41.813s-41.813-18.773-41.813-41.813v-110.080l-79.787 79.787c-7.68 7.68-18.347 12.373-29.44 12.373s-21.76-4.267-29.44-12.373c-16.213-16.213-16.213-42.667 0-58.88l139.093-139.093v-142.933l-118.613 68.693-53.333 193.707c-5.12 17.92-21.333 30.72-40.533 30.72-3.84 0-7.253-0.427-11.093-1.28-10.667-2.987-19.627-9.813-25.173-19.627s-6.827-20.907-3.84-31.573l30.72-111.787-96.853 55.893c-6.4 3.84-13.653 5.547-20.907 5.547-14.933 0-28.587-8.107-36.267-20.907-11.52-19.627-4.693-45.227 15.36-56.747l98.987-57.173-117.76-32.427c-10.667-2.987-19.627-9.813-25.173-19.627s-6.827-20.907-3.84-31.573c5.12-17.92 21.76-30.72 40.107-30.72 3.84 0 7.68 0.427 11.093 1.707l196.693 54.187 119.040-69.12-121.6-69.12-194.133 51.2c-3.413 0.853-7.253 1.28-10.667 1.28-18.773 0-35.413-12.8-40.107-31.147-5.973-22.187 7.253-45.227 29.44-50.773l112.213-29.867-97.28-55.467c-20.053-11.52-26.88-36.693-15.787-56.747 7.253-12.8 21.333-20.907 36.267-20.907 7.253 0 14.507 1.707 20.48 5.547l99.413 56.747-31.147-118.187c-5.973-22.187 7.253-45.227 29.44-51.2 3.413-0.853 7.253-1.28 10.667-1.28 18.773 0 35.413 12.8 40.107 31.147l52.053 197.12 120.747 68.693v-144.64l-140.8-143.36c-16.213-16.64-15.787-43.093 0.427-58.88 7.68-7.68 18.347-11.947 29.44-11.947s21.76 4.267 29.867 12.373l81.067 82.773v-111.787c0-23.040 18.773-41.813 41.813-41.813s41.813 18.773 41.813 41.813v114.347l87.040-85.333c8.107-7.68 18.347-11.947 29.44-11.947s21.76 4.267 29.867 12.373c16.213 16.64 15.787 43.093-0.427 58.88l-145.493 142.933v144.64l130.56-75.52 49.493-191.147c4.693-18.347 21.333-31.147 40.533-31.147 3.413 0 7.253 0.427 10.667 1.28 22.187 5.973 35.84 28.587 29.867 50.773l-29.013 111.36 96-55.467c6.4-3.84 13.653-5.547 20.907-5.547 14.933 0 28.587 8.107 36.267 20.907 11.52 20.053 4.693 45.227-14.933 57.173l-95.147 55.040 109.227 29.013c22.187 5.973 35.413 29.013 29.44 51.2z" />
<glyph unicode="&#xe95a;" glyph-name="icon-import" d="M600.32 695.893h-412.16c-23.040 0-41.813-18.773-41.813-41.813s18.773-41.813 41.813-41.813h370.347v-564.48h-370.347c-23.040 0-41.813-18.773-41.813-41.813s18.773-41.813 41.813-41.813h412.16c23.040 0 41.813 18.773 41.813 41.813v648.107c0 23.040-18.773 41.813-41.813 41.813zM835.84 931.413h-471.040c-23.040 0-41.813-18.773-41.813-41.813v-146.347h83.627v104.533h387.84v-564.053h-105.387v-83.627h147.2c23.040 0 41.813 18.773 41.813 41.813v647.68c0 23.040-18.773 41.813-41.813 41.813zM151.467 330.667c0-23.040 18.773-41.813 41.813-41.813h164.267l-36.267-36.267c-7.68-7.68-12.373-18.347-11.947-29.44 0-11.093 4.267-21.76 12.373-29.44s18.347-11.947 29.44-11.947 21.76 4.267 29.44 12.373l108.373 108.8v0.853c3.84 3.413 5.973 7.253 7.68 11.52 2.133 4.693 2.56 9.387 2.987 13.227v1.707s0 1.28 0 1.28c0 5.547-1.28 11.093-3.413 16.213s-5.12 9.387-8.96 13.653l-107.093 106.24c-8.107 7.68-18.347 11.947-29.44 11.947s-21.76-4.267-29.44-12.373c-7.68-7.68-12.373-18.347-11.947-29.44 0-11.093 4.267-21.76 12.373-29.44l35.413-34.987h-163.413c-23.040 0-41.813-18.773-41.813-41.813z" />
<glyph unicode="&#xe95b;" glyph-name="icon-info" d="M512 725.333c-39.253 0-71.253-32-71.253-71.253s32-71.253 71.253-71.253 71.253 32 71.253 71.253-32 71.253-71.253 71.253zM482.56 544h-12.373v-378.027h83.627v377.6h-71.253zM512 931.413c-266.667 0-483.413-216.747-483.413-483.413s216.747-483.413 483.413-483.413 483.413 216.747 483.413 483.413-216.747 483.413-483.413 483.413zM512 48.213c-220.587 0-399.787 179.2-399.787 399.787s179.2 399.787 399.787 399.787 399.787-179.2 399.787-399.787-179.2-399.787-399.787-399.787z" />
<glyph unicode="&#xe95c;" glyph-name="icon-instagram" d="M512 666.453c-120.32 0-218.453-98.133-218.453-218.453s98.133-218.453 218.453-218.453 218.453 98.133 218.453 218.453-98.133 218.453-218.453 218.453zM512 313.173c-74.24 0-134.827 60.587-134.827 134.827s60.587 134.827 134.827 134.827 134.827-60.587 134.827-134.827-60.587-134.827-134.827-134.827zM662.613 872.533h-300.8c-151.040 0-273.92-122.88-273.92-273.92v-300.8c0-151.040 122.88-273.92 273.92-273.92h300.8c151.040 0 273.92 122.88 273.92 273.92v300.8c0 151.040-122.88 273.92-273.92 273.92zM853.333 297.813c0-104.96-85.333-190.72-190.72-190.72h-300.8c-104.96 0-190.72 85.333-190.72 190.72v300.8c0 104.96 85.333 190.72 190.72 190.72h300.8c104.96 0 190.72-85.333 190.72-190.72v-300.8zM729.6 711.68c-24.32 0-43.947-19.627-43.947-43.947s19.627-44.373 43.947-44.373 44.373 19.627 44.373 44.373-19.627 43.947-44.373 43.947z" />
</font>
</defs>
</svg>
