<svg width="138" height="26" viewBox="0 0 138 26" fill="none" xmlns="http://www.w3.org/2000/svg">
<path d="M42.4983 24.6603L37.9092 7.21331C37.4737 5.55801 36.5597 4.07585 35.2869 2.96097C34.014 1.8461 32.4417 1.1505 30.7759 0.965286C29.1101 0.780074 27.4284 1.11389 25.9512 1.923C24.4739 2.73212 23.27 3.9788 22.4971 5.49976L14.4459 21.3393H5.56186L7.50525 13.9464C8.11603 11.6241 9.97151 10.6139 11.504 10.4435C13.0365 10.2731 15.0604 10.8515 16.145 12.9854L16.3597 13.4096H16.418L18.329 9.64826C17.3435 8.47257 16.0632 7.59416 14.626 7.10759C13.1887 6.62102 11.6489 6.54475 10.1724 6.88696C8.69593 7.22918 7.33863 7.97693 6.24671 9.0497C5.15479 10.1225 4.36959 11.4796 3.97567 12.975L0.902338 24.6603C0.889437 24.7095 0.887757 24.761 0.897413 24.811C0.907069 24.8609 0.927805 24.9079 0.958031 24.9483C0.988257 24.9888 1.02717 25.0216 1.07174 25.0442C1.11632 25.0668 1.16538 25.0786 1.21514 25.0788H16.3727C16.4616 25.0787 16.5488 25.0537 16.6249 25.0064C16.7009 24.9592 16.7628 24.8916 16.8039 24.8109L25.7398 7.22467C26.8244 5.09077 28.8492 4.51233 30.3808 4.68274C31.9124 4.85315 33.7688 5.86235 34.3796 8.18559L37.8398 21.3449H24.5136L22.6017 17.5817H22.536L20.5056 21.5778L22.151 24.8165C22.192 24.8973 22.2539 24.965 22.33 25.0123C22.406 25.0595 22.4933 25.0845 22.5823 25.0844H42.1818C42.2325 25.0851 42.2827 25.0737 42.3282 25.051C42.3738 25.0283 42.4136 24.9951 42.4443 24.9538C42.4751 24.9126 42.496 24.8646 42.5054 24.8136C42.5148 24.7627 42.5123 24.7102 42.4983 24.6603Z" fill="white"/>
<path d="M94.5339 6.40469C89.334 6.40469 85.8396 9.29691 85.8396 13.5997C85.8396 17.9026 89.334 20.7948 94.5339 20.7948C99.7339 20.7948 103.247 17.9026 103.247 13.5997C103.247 9.29691 99.7459 6.40469 94.5339 6.40469ZM94.5339 18.411C91.1774 18.411 88.9222 16.4787 88.9222 13.6026C88.9222 10.7265 91.1774 8.7942 94.5339 8.7942C97.8905 8.7942 100.164 10.7265 100.164 13.6026C100.164 16.4787 97.9016 18.411 94.5339 18.411Z" fill="white"/>
<path d="M114.035 6.40469C108.835 6.40469 105.34 9.29691 105.34 13.5997C105.34 17.9026 108.835 20.7948 114.035 20.7948C119.235 20.7948 122.747 17.9026 122.747 13.5997C122.747 9.29691 119.243 6.40469 114.035 6.40469ZM114.035 18.411C110.678 18.411 108.423 16.4787 108.423 13.6026C108.423 10.7265 110.678 8.7942 114.035 8.7942C117.391 8.7942 119.665 10.7265 119.665 13.6026C119.665 16.4787 117.402 18.411 114.035 18.411Z" fill="white"/>
<path d="M64.8576 13.309C66.1449 12.8688 66.925 11.782 66.925 10.3742C66.925 8.17878 65.2213 6.87137 62.3673 6.87137H52.853V20.3356H62.4219C65.5036 20.3356 67.2711 18.942 67.2711 16.5118C67.2711 14.8181 66.4392 13.719 64.8576 13.309ZM61.8963 18.1127H55.7885V9.09425H61.7464C63.6324 9.09425 63.9146 10.0627 63.9146 10.6402C63.9146 11.3976 63.6897 12.4097 61.7464 12.4097H57.5357L56.7639 14.5028V14.5379H61.8935C63.4667 14.5379 64.2617 15.14 64.2617 16.3262C64.2617 17.5124 63.4649 18.1127 61.8935 18.1127H61.8963Z" fill="white"/>
<path d="M137.856 17.8527H128.528V6.87079H125.591V20.335H136.97L137.856 17.9341V17.8527Z" fill="white"/>
<path d="M85.6859 20.2839L79.2367 11.9234L85.2667 6.9134V6.87079H81.4484L73.3611 13.6616V6.87079H70.4238V20.335H73.3611V16.8066L76.9703 13.7089L82.1268 20.335H85.6859V20.2839Z" fill="white"/>
</svg>
